<svg xmlns="http://www.w3.org/2000/svg" viewBox="0 0 42.22 42.59"><defs><style>.cls-1{fill:#0d131a;}.cls-1,.cls-10,.cls-11,.cls-2,.cls-3,.cls-4,.cls-5,.cls-6,.cls-7,.cls-8,.cls-9{fill-rule:evenodd;}.cls-2{fill:#f0e78e;}.cls-3{fill:#c9c279;}.cls-4{fill:#6cba5a;}.cls-5{fill:#5da24d;}.cls-6{fill:#f9be00;}.cls-7{fill:#da4e70;}.cls-8{fill:#b8405f;}.cls-9{fill:#8a969d;}.cls-10{fill:#d6e6ae;}.cls-11{fill:#edadb5;}</style></defs><title>Asset 90@</title><g id="Layer_2" data-name="Layer 2"><g id="Layer_1-2" data-name="Layer 1"><polygon class="cls-1" points="25.85 25.07 18.49 25.07 18.49 16.4 25.85 16.4 25.85 25.07 25.85 25.07"/><path class="cls-1" d="M.18,25.21c.26-1,.71-1.58,1.33-1.72s1.42.22,2.07,1.13a7.39,7.39,0,0,1,1.19,2.95A9.48,9.48,0,0,1,4.7,31.2a6.37,6.37,0,0,1-.85,2.39l-.25.35a4.48,4.48,0,0,1-1.42-1.19A8.12,8.12,0,0,1,.42,29.48a8.41,8.41,0,0,1-.24-4.27Z"/><path class="cls-2" d="M.87,28.79A9,9,0,0,1,.63,25.6c.12-1.06.48-1.65,1.06-1.77s1,.22,1.44.93a8.29,8.29,0,0,1,1.14,3.18,9.36,9.36,0,0,1,.05,2.52,9.36,9.36,0,0,1-.72,3A5.77,5.77,0,0,1,2,31.58a10.61,10.61,0,0,1-1.1-2.79Z"/><path class="cls-3" d="M.88,24.59A9.81,9.81,0,0,0,2.25,30.7a3.31,3.31,0,0,0,1.2,1.22c.39.19.62.11.71-.26a9,9,0,0,1-.56,1.85A5.77,5.77,0,0,1,2,31.58a10.61,10.61,0,0,1-1.1-2.79A9.22,9.22,0,0,1,.58,26.5a4.6,4.6,0,0,1,.3-1.91Z"/><path class="cls-1" d="M4.86,34.46l-.54.43-.71.29a.86.86,0,0,1-.77-1,1.05,1.05,0,0,1,.63-1.1,1,1,0,0,1,1.15.19.92.92,0,0,1,.24,1.16Z"/><path class="cls-2" d="M4.57,33.75a.54.54,0,0,1-.12.62l-.32.28-.29.11a.55.55,0,0,1-.55-.18.61.61,0,0,1-.1-.54.81.81,0,0,1,.34-.58A.72.72,0,0,1,4,33.38a.62.62,0,0,1,.53.37Z"/><path class="cls-3" d="M4.57,33.75a.54.54,0,0,1-.12.62l-.32.28-.29.11a.55.55,0,0,1-.55-.18.57.57,0,0,1-.1-.54l.73.05a.56.56,0,0,0,.33-.65.6.6,0,0,1,.32.31Z"/><path class="cls-1" d="M24.49,34.9a2.33,2.33,0,0,1,1.65-.59,3.36,3.36,0,0,1,1.94.53,2.48,2.48,0,0,1,.05,3.95,2.82,2.82,0,0,1-2.1.8,2.28,2.28,0,0,1-1.56-.66,2.8,2.8,0,0,1-.69-2,2.69,2.69,0,0,1,.71-2Z"/><path class="cls-2" d="M24.65,35.19a1.84,1.84,0,0,1,1.53-.78,2.25,2.25,0,0,1,1.65.69,2.5,2.5,0,0,1,.7,1.83,2,2,0,0,1-.85,1.6,2.79,2.79,0,0,1-1.78.63,1.63,1.63,0,0,1-1.27-.73,2.39,2.39,0,0,1-.56-1.5,2.78,2.78,0,0,1,.58-1.74Z"/><path class="cls-3" d="M25.9,39.16a1.63,1.63,0,0,1-1.27-.73,2.39,2.39,0,0,1-.56-1.5,2.78,2.78,0,0,1,.58-1.74,1.84,1.84,0,0,1,1.53-.78l.72.11-.39,0a2.08,2.08,0,0,0-2.08,2.08,2.07,2.07,0,0,0,.61,1.5,2.07,2.07,0,0,0,2.72.19,2.07,2.07,0,0,0,.76-1,2.16,2.16,0,0,1-.95,1.39,2.79,2.79,0,0,1-1.67.55Z"/><path class="cls-1" d="M23.45,31.42l-.21,7.46a7,7,0,0,1-3.71,2.91,22.36,22.36,0,0,1-6.5.8,11.4,11.4,0,0,1-6.1-1.46,7,7,0,0,1-3.41-4.54,2.11,2.11,0,0,1,.3-1.86,1.39,1.39,0,0,1,1.8-.29l1.17.43,2.12.18a5,5,0,0,0,4.09-2A7.26,7.26,0,0,0,14.09,28l4.77-2.32,4.59,5.78Z"/><path class="cls-4" d="M7.8,35.39l-.51.2a2.77,2.77,0,0,0-1,1.08A2.82,2.82,0,0,0,6,38.27l.2.74-.64-.19a1.76,1.76,0,0,1-.69-.39,2.94,2.94,0,0,1-.68-1,4.16,4.16,0,0,1-.3-1.33,1.48,1.48,0,0,1,.38-1.22l1.21,0,.93.37a3.26,3.26,0,0,0,1.36.18Z"/><path class="cls-5" d="M4,36.78a1.54,1.54,0,0,0,1,.85l1-.06A2.65,2.65,0,0,0,6.23,39l-.64-.19a1.76,1.76,0,0,1-.69-.39A3.13,3.13,0,0,1,4,36.78Z"/><path class="cls-4" d="M10.74,35.29l-.37.51A2.59,2.59,0,0,0,10,37.09a3.26,3.26,0,0,0,.27,1.3,2,2,0,0,0,.45.67c.16.15.15.24-.05.27l-1.76.15A3.22,3.22,0,0,1,7.08,39a1.35,1.35,0,0,1-.63-1.17,2.5,2.5,0,0,1,.64-1.61,2.23,2.23,0,0,1,1.08-.77l1.27-.08.75-.16c.33-.08.51-.07.55,0Z"/><path class="cls-5" d="M6.45,37.71q.24.63,1.77.84c1,.13,1.68,0,2-.39a2.2,2.2,0,0,0,.53.9c.16.15.15.24-.05.27l-1.76.15A3.22,3.22,0,0,1,7.08,39a1.35,1.35,0,0,1-.63-1.17v-.15Z"/><path class="cls-4" d="M14.75,38.08a6.37,6.37,0,0,1-2.3.93,1.63,1.63,0,0,1-1.58-.53A2.22,2.22,0,0,1,10.42,37a2.37,2.37,0,0,1,.16-.94,2.28,2.28,0,0,1,.57-.84l1.34-1a4.59,4.59,0,0,0,1.31-1.53l.13-.12.11.12a3.17,3.17,0,0,0,.61,1.26,5.42,5.42,0,0,0,2.73,1.81l-.61.75a9.22,9.22,0,0,1-2,1.59Z"/><path class="cls-5" d="M13.37,37.57a3.17,3.17,0,0,0,1.51-3.37,5.45,5.45,0,0,0,2.5,1.54l-.61.75a9.22,9.22,0,0,1-2,1.59,6.37,6.37,0,0,1-2.3.93,1.54,1.54,0,0,1-1.83-.93,3,3,0,0,0,2.75-.51Z"/><path class="cls-4" d="M18.91,26.51l.51,5.71-.59,2-1.22.89a3.26,3.26,0,0,1-2.19-1.06,3.15,3.15,0,0,1-1.15-2.27,4.1,4.1,0,0,1,.11-.82l.18-.93a9.89,9.89,0,0,0,.19-1.73l2.58-1.83Z"/><path class="cls-5" d="M18.91,26.51l.51,5.71-.59,2-1.22.89a2.65,2.65,0,0,1-1.3-.41,4.2,4.2,0,0,1-1.22-1A2.09,2.09,0,0,0,16.88,33a3.07,3.07,0,0,0,.65-1.81,3.53,3.53,0,0,0-.33-1.86,1.43,1.43,0,0,0-1.14-.95l1.27-1.83Z"/><path class="cls-3" d="M21.71,37.39c.65.87.88,1.44.71,1.72a5.1,5.1,0,0,1-2,1.78,5.27,5.27,0,0,1-2.48.69,3.4,3.4,0,0,1-2.07-.8,3.54,3.54,0,0,1-1.3-1.72c-.08-.27.06-.49.4-.66l1.73-1.31,4-.92,1,1.22Z"/><path class="cls-3" d="M17.06,41.71a15.25,15.25,0,0,1-4.51.43,1.73,1.73,0,0,1-1.33-.9,1.18,1.18,0,0,1-.11-1.36.5.5,0,0,1,.24-.19l.46-.16.82-.18,1.53-.51L14.62,40a4.36,4.36,0,0,0,2.44,1.75Z"/><path class="cls-3" d="M11.56,42a8.87,8.87,0,0,1-4.13-1.12,1.79,1.79,0,0,1-.64-.84c-.11-.32-.09-.48.06-.5l1.62.25a12.54,12.54,0,0,0,2.22,0,1.55,1.55,0,0,0,.05,1.36,2.14,2.14,0,0,0,.82.9Z"/><path class="cls-3" d="M6.66,40.49a4.71,4.71,0,0,1-1.3-1.16.14.14,0,0,1,0-.17l.21,0,.8.28a.66.66,0,0,0,0,.61l.29.47Z"/><path class="cls-1" d="M14,11.8q.86.77,3,3.11a16.42,16.42,0,0,1,2.89,4,7.81,7.81,0,0,1,1.09,3.26,3.48,3.48,0,0,1-.52,1.8l-.65.93-.49.91L18.55,27a3.89,3.89,0,0,1-1.38,1.33,4.83,4.83,0,0,1-2.1.36c-1.56,0-3.12-1.13-4.69-3.37A12.21,12.21,0,0,1,8,18.21a9.8,9.8,0,0,1,1.14-4.55A5.26,5.26,0,0,1,11.48,11c.74-.32,1.58-.06,2.5.77Z"/><path class="cls-4" d="M11.6,11.72l1.26-.05,2.66,2.42,1.68,2.18c1.17,1.54,1.88,2.52,2.12,2.94a7.54,7.54,0,0,1,1.21,2.84,2.93,2.93,0,0,1-.5,1.49l-.63.85-.56,1-.69,1.21a3.22,3.22,0,0,1-2.78,1.62q-2.29,0-4.47-3.08a11.56,11.56,0,0,1-2.25-6.79,10.94,10.94,0,0,1,1-4.32c.66-1.53,1.32-2.29,2-2.29Z"/><path class="cls-5" d="M20.53,22.05a2.93,2.93,0,0,1-.5,1.49l-.63.85-.56,1-.69,1.21a3.22,3.22,0,0,1-2.78,1.62,4,4,0,0,1-1.82-.55c1.24.35,2.09.13,2.56-.67s.36-2.18-.43-3.9a23.45,23.45,0,0,0-1.56-2.2,14.14,14.14,0,0,1-1.84-2.95l5.2-1.29,1.84,2.57a7.54,7.54,0,0,1,1.21,2.84Z"/><path class="cls-1" d="M23.06,28a5.58,5.58,0,0,1,4,1.27,5.37,5.37,0,0,1,1.39,4.09,5.48,5.48,0,0,1-2.1,3.93,6.66,6.66,0,0,1-4.6,2,3.47,3.47,0,0,1-2.94-1.36,6.27,6.27,0,0,1-1-3.87,6.41,6.41,0,0,1,1.49-3.95A4.76,4.76,0,0,1,23.06,28Z"/><path class="cls-2" d="M23.11,28.37a4.79,4.79,0,0,1,3.47,1.24A5,5,0,0,1,28,33.41c0,1.21-.7,2.44-2.12,3.69A6.28,6.28,0,0,1,21.75,39a3.11,3.11,0,0,1-2.57-1.27,5.4,5.4,0,0,1-1-3.48,6.21,6.21,0,0,1,1.49-3.79,4.45,4.45,0,0,1,3.47-2.07Z"/><path class="cls-3" d="M19,31.47A6.76,6.76,0,0,1,21,29.1l2.38,1.7-.16,2a3.65,3.65,0,0,0-1.65.56,3.38,3.38,0,0,0-1.16,1.08,2.45,2.45,0,0,1-1.22.88l-.88.29,0,0a7,7,0,0,1-.13-1.38A5.67,5.67,0,0,1,19,31.47Z"/><path class="cls-3" d="M21.36,37.68a7.2,7.2,0,0,0,3.93-1.14A7.33,7.33,0,0,0,28,33.59a5.37,5.37,0,0,1-2.2,3.59,6.23,6.23,0,0,1-4,1.8,3.16,3.16,0,0,1-1.66-.45,3.52,3.52,0,0,1-1.23-1.28,7.18,7.18,0,0,0,2.5.43Z"/><path class="cls-1" d="M19.05,34.15A2.69,2.69,0,0,1,21.2,35a2.6,2.6,0,0,1,.64,1.85A2.45,2.45,0,0,1,21,38.61a2.84,2.84,0,0,1-2,.82,2.39,2.39,0,0,1-1.69-.69,2.7,2.7,0,0,1-.81-2A2.52,2.52,0,0,1,17.14,35a2.48,2.48,0,0,1,1.91-.83Z"/><path class="cls-2" d="M19.11,34.57a2.22,2.22,0,0,1,1.64.66,2,2,0,0,1,.61,1.44,2.36,2.36,0,0,1-.69,1.64,2.18,2.18,0,0,1-1.64.77,2,2,0,0,1-1.44-.66A1.93,1.93,0,0,1,16.92,37a2.46,2.46,0,0,1,.62-1.78,2,2,0,0,1,1.57-.64Z"/><path class="cls-3" d="M17,36.48A3,3,0,0,0,18,37.84a3,3,0,0,0,1.7.53,2.75,2.75,0,0,0,1-.19,2.19,2.19,0,0,1-1.75.9,2,2,0,0,1-1.44-.66A1.93,1.93,0,0,1,16.92,37a2.78,2.78,0,0,1,0-.51Z"/><path class="cls-1" d="M29.58,31.63a8.85,8.85,0,0,1-5,1.43,5.83,5.83,0,0,1-4.27-1.53,5.89,5.89,0,0,1-1.62-4.44,4.38,4.38,0,0,1,1.75-3.45,7,7,0,0,1,4.68-1.59,6.61,6.61,0,0,1,5.07,1.78,6.37,6.37,0,0,1,1.51,4.54,4,4,0,0,1-2.13,3.26Z"/><path class="cls-2" d="M29.05,31.29a7.79,7.79,0,0,1-4.38,1.3,5.5,5.5,0,0,1-4.13-1.47,5.54,5.54,0,0,1-1.38-4A4.05,4.05,0,0,1,21,24a6.35,6.35,0,0,1,4.07-1.51,6.54,6.54,0,0,1,4.56,1.35,5.5,5.5,0,0,1,1.49,4.27,3.78,3.78,0,0,1-2.05,3.14Z"/><path class="cls-3" d="M28.9,29.42a6.26,6.26,0,0,0,2-3.21,8,8,0,0,1,.21,1.94,3.78,3.78,0,0,1-2.05,3.14,7.79,7.79,0,0,1-4.38,1.3,5.5,5.5,0,0,1-4.13-1.47,5.54,5.54,0,0,1-1.38-4,3.38,3.38,0,0,1,.77-2,6.37,6.37,0,0,0,1.83,3.95,5.19,5.19,0,0,0,7.14.34Z"/><path class="cls-3" d="M30.54,25.15a6.44,6.44,0,0,1-2.55.53,6.33,6.33,0,0,1-3-.74A6.59,6.59,0,0,1,22.74,23a6.23,6.23,0,0,1,2.31-.47q4.26,0,5.49,2.62Z"/><path class="cls-1" d="M21.15,25.82a2.83,2.83,0,0,1,2,.82,2.93,2.93,0,0,1,.91,2.2,2.62,2.62,0,0,1-1,2.16,3.68,3.68,0,0,1-2.38.78,2.57,2.57,0,0,1-1.94-.84,3,3,0,0,1-.84-2.17,2.72,2.72,0,0,1,.94-2.15,3.39,3.39,0,0,1,2.32-.8Z"/><path class="cls-2" d="M21,26.24a2.44,2.44,0,0,1,1.91.82,2.57,2.57,0,0,1,.68,1.78,2.31,2.31,0,0,1-.84,1.81,2.87,2.87,0,0,1-2,.72A2.38,2.38,0,0,1,19,30.64a2.54,2.54,0,0,1-.71-1.8A2.46,2.46,0,0,1,19.07,27,2.67,2.67,0,0,1,21,26.24Z"/><path class="cls-3" d="M21.22,30.28a3.1,3.1,0,0,0,2.34-1,2.46,2.46,0,0,1-1,1.5,3,3,0,0,1-1.8.57A2.38,2.38,0,0,1,19,30.64a2.54,2.54,0,0,1-.71-1.8l0-.27a3.32,3.32,0,0,0,1.19,1.25,3.21,3.21,0,0,0,1.7.46Z"/><path class="cls-1" d="M28.12,28.23A3.64,3.64,0,0,1,29,27a1.82,1.82,0,0,1,1.22-.56,1.6,1.6,0,0,1,1.28.62,2.52,2.52,0,0,1,.54,1.67,2.86,2.86,0,0,1-.91,2.11,2.91,2.91,0,0,1-2.09.88,1.25,1.25,0,0,1-1.31-1.16,3.66,3.66,0,0,1,.37-2.29Z"/><path class="cls-2" d="M30.17,26.74a1.18,1.18,0,0,1,1,.56,2.21,2.21,0,0,1,.4,1.33A2.54,2.54,0,0,1,29,31.2a.89.89,0,0,1-.66-.29,1.23,1.23,0,0,1-.3-.87,4.09,4.09,0,0,1,.7-2.13c.49-.78.95-1.17,1.4-1.17Z"/><path class="cls-3" d="M28.07,30.07a2.23,2.23,0,0,0,1.6.63,2.39,2.39,0,0,0,1.26-.35,2.47,2.47,0,0,1-1.9.85.81.81,0,0,1-.64-.28,1.23,1.23,0,0,1-.32-.85Z"/><path class="cls-1" d="M31.17,24.83a10.11,10.11,0,0,1-5.59-1.62c-1.6-1-2.41-2.1-2.41-3.21a3.07,3.07,0,0,1,.1-1,4.14,4.14,0,0,1-1.35,1,9.88,9.88,0,0,1-4.68,1A5.05,5.05,0,0,1,13,18.62a11.07,11.07,0,0,1-1.75-6.47,11,11,0,0,1,4.43-9.07A14.67,14.67,0,0,1,24.89,0a15.41,15.41,0,0,1,9.33,3.35Q39,7,39,11.6a5.91,5.91,0,0,1-2.21,4.7l.35.73a5.89,5.89,0,0,1,.35,2A5.49,5.49,0,0,1,36,22.87a6.23,6.23,0,0,1-4.87,2Z"/><path class="cls-4" d="M31.05,14.57q5.88,0,5.88,4.53a4.9,4.9,0,0,1-1.67,3.69,5.67,5.67,0,0,1-4,1.57,9.42,9.42,0,0,1-5.55-1.76c-1.41-1-2.12-1.89-2.12-2.64l0-.86,0-.29,1.71-1.54a10.91,10.91,0,0,1,2.76-2,6.85,6.85,0,0,1,2.92-.72Z"/><path class="cls-5" d="M29.91,22.08h.39v2.24a9.27,9.27,0,0,1-4.86-1.92c-1.23-1-1.85-1.76-1.85-2.43l0-.86,0-.29.77-.66a5.78,5.78,0,0,0,5.48,3.93Z"/><path class="cls-4" d="M34,3.93q4.36,3.46,4.37,7.67a5.59,5.59,0,0,1-1,3.21l-.95,1a4.52,4.52,0,0,0-2.27-1.33,11.47,11.47,0,0,0-3.2-.4,7.71,7.71,0,0,0-4.25,1.34c-.35.24-1.45,1.14-3.27,2.7A9.51,9.51,0,0,1,20.62,20a10.61,10.61,0,0,1-3.56.51A4.33,4.33,0,0,1,13.34,18a11.18,11.18,0,0,1-1.46-5.92,10.55,10.55,0,0,1,4-8.49A13.45,13.45,0,0,1,24.78.53,14.6,14.6,0,0,1,34,3.93Z"/><path class="cls-5" d="M16.24,18.41a8.59,8.59,0,0,0,7.37-.34l-.11.08A9.51,9.51,0,0,1,20.62,20a10.61,10.61,0,0,1-3.56.51,4.19,4.19,0,0,1-3.53-2.13,10.31,10.31,0,0,1-1.62-5.28,7.14,7.14,0,0,0,4.33,5.36Z"/><path class="cls-1" d="M18.78,3.77a5,5,0,0,1,3.82,1.7,4.87,4.87,0,0,1,0,6.82,5.43,5.43,0,0,1-4.12,1.58,4.58,4.58,0,0,1-3.35-1.45,4.81,4.81,0,0,1-1.45-3.51,5,5,0,0,1,1.49-3.6,4.8,4.8,0,0,1,3.57-1.54Z"/><path class="cls-6" d="M18.89,4.35a4.26,4.26,0,0,1,3.35,1.54,4.41,4.41,0,0,1,1.19,2.94A4.32,4.32,0,0,1,22.07,12a4.61,4.61,0,0,1-3.65,1.31A4.05,4.05,0,0,1,15.5,12a4.6,4.6,0,0,1-1.2-3.21,4.2,4.2,0,0,1,1.3-3.13,4.54,4.54,0,0,1,3.29-1.28Z"/><path class="cls-1" d="M18.63,12.21a3.38,3.38,0,0,1-3.38-3.38A3.39,3.39,0,0,1,21,6.42a3.27,3.27,0,0,1,1,2.41,3.38,3.38,0,0,1-3.4,3.38Z"/><path class="cls-1" d="M40,4a1.65,1.65,0,0,1,1.82.66A1.69,1.69,0,0,1,42,6.48a4.59,4.59,0,0,1-2.49,1.91c-1.92.85-3.19,1.44-3.78,1.78a3.34,3.34,0,0,0-.87.63,3.25,3.25,0,0,0-.48.95c-.47,1.25-1.16,1.81-2.07,1.67a1.73,1.73,0,0,1-1.27-.73,3.2,3.2,0,0,1-.39-1.2l-.19-1.09a1.69,1.69,0,0,0-.62-.77,24.54,24.54,0,0,0-2.76-1.56c-1.59-.83-2.54-1.37-2.86-1.6A2.87,2.87,0,0,1,23,4.41a2,2,0,0,1,.44-1.57,2,2,0,0,1,1.47-.69,2.82,2.82,0,0,1,1.74.56l1.75,1.46L30.59,6a5.68,5.68,0,0,0,2.53,1.38c.69,0,2.06-.67,4.11-2.08A8.48,8.48,0,0,1,40,4Z"/><path class="cls-7" d="M39.19,4.75a2.47,2.47,0,0,1,1.35-.35,1.2,1.2,0,0,1,.85.46,1.22,1.22,0,0,1,.13,1.33A3,3,0,0,1,40,7.51c-1.7.82-3.11,1.53-4.24,2.1a4.69,4.69,0,0,0-1.07.69A2.61,2.61,0,0,0,34,11.41a3.23,3.23,0,0,1-.72,1.24,1.19,1.19,0,0,1-1,.24,1.23,1.23,0,0,1-.82-.45,2.79,2.79,0,0,1-.29-1.17,3.4,3.4,0,0,0-.32-1.18,3.5,3.5,0,0,0-1-1.05l-1.67-.95L25.5,6.63a4.2,4.2,0,0,1-1.86-1.77,1.53,1.53,0,0,1,.18-1.59,1.32,1.32,0,0,1,1.44-.54A5.3,5.3,0,0,1,27.7,4.22a25.32,25.32,0,0,0,2.81,2.31,5.7,5.7,0,0,0,2.65,1.3A6.64,6.64,0,0,0,36,6.69l3.16-1.94Z"/><path class="cls-8" d="M41.65,5.5a1.4,1.4,0,0,1-.34,1,3.7,3.7,0,0,1-1.3,1c-1.7.82-3.11,1.53-4.24,2.1a4.69,4.69,0,0,0-1.07.69A2.61,2.61,0,0,0,34,11.41a3.23,3.23,0,0,1-.72,1.24,1.19,1.19,0,0,1-1,.24,1.23,1.23,0,0,1-.82-.45,2.79,2.79,0,0,1-.29-1.17,3.4,3.4,0,0,0-.32-1.18,3.5,3.5,0,0,0-1-1.05l-1.67-.95L25.5,6.63a4.72,4.72,0,0,1-1.62-1.35A1.72,1.72,0,0,1,23.53,4q0,.72,3.69,2.76A17.23,17.23,0,0,0,33,9c1,.11,2.69-.32,5-1.3S41.56,6,41.65,5.5Z"/><path class="cls-1" d="M31.63,17.89A5,5,0,0,1,34.94,19a3.15,3.15,0,0,1,1.2,2.49,2.75,2.75,0,0,1-1,1.9,4.93,4.93,0,0,1-3.32,1.3A6.24,6.24,0,0,1,28.58,24,2.64,2.64,0,0,1,27,21.57,3.2,3.2,0,0,1,28.39,19a5.07,5.07,0,0,1,3.24-1.09Z"/><path class="cls-4" d="M31.58,18.36a4.46,4.46,0,0,1,2.72.77,2.64,2.64,0,0,1,1.26,2.26,2.37,2.37,0,0,1-1.09,2.09,5.21,5.21,0,0,1-2.92.7,4.81,4.81,0,0,1-2.95-.8,2.17,2.17,0,0,1-1-1.8,2.8,2.8,0,0,1,1-2.13,4.27,4.27,0,0,1,2.93-1.09Z"/><path class="cls-9" d="M18.58,8.67a2.21,2.21,0,0,1-1.46,0,1.26,1.26,0,0,1-.86-.83,1.33,1.33,0,0,1,.22-1.21,2.25,2.25,0,0,1,1.19-.83,2.28,2.28,0,0,1,1.46,0,1.29,1.29,0,0,1,.66,2,2.37,2.37,0,0,1-1.21.85Z"/><path class="cls-5" d="M27.75,22.27a6.7,6.7,0,0,0,3.62,1.19,6.83,6.83,0,0,0,3.73-.59c-.65.88-1.84,1.31-3.55,1.31A5.2,5.2,0,0,1,29,23.62a2.5,2.5,0,0,1-1.23-1.35Z"/><path class="cls-5" d="M27.75,22.27a6.7,6.7,0,0,0,3.62,1.19,6.83,6.83,0,0,0,3.73-.59c-.65.88-1.84,1.31-3.55,1.31A5.2,5.2,0,0,1,29,23.62a2.5,2.5,0,0,1-1.23-1.35Z"/><path class="cls-10" d="M12.76,20a3.41,3.41,0,0,1,1.41,1.56,4,4,0,0,1,.42,2.13,1.71,1.71,0,0,1-.84,1.42A1.75,1.75,0,0,1,12.07,25a3.69,3.69,0,0,1-1.57-1.56,3.41,3.41,0,0,1-.47-2.1,1.74,1.74,0,0,1,.84-1.45,1.82,1.82,0,0,1,1.89.08Z"/><path class="cls-4" d="M12.61,20.72a2.33,2.33,0,0,1,1.06,1.17,2.72,2.72,0,0,1,.32,1.6,1.26,1.26,0,0,1-.62,1.06l-1.27-.06a2.85,2.85,0,0,1-1.19-1.17,2.56,2.56,0,0,1-.33-1.59,1.31,1.31,0,0,1,.62-1.08,1.36,1.36,0,0,1,1.41.07Z"/><path class="cls-10" d="M17,31a1.61,1.61,0,0,1-.35.91.84.84,0,0,1-.69.37.86.86,0,0,1-.71-.4A1.54,1.54,0,0,1,15,31a1.51,1.51,0,0,1,.32-.93.85.85,0,0,1,.71-.37.91.91,0,0,1,.79.45A1.53,1.53,0,0,1,17,31Z"/><path class="cls-4" d="M16.71,31a1.18,1.18,0,0,1-.26.69.68.68,0,0,1-.53.27.64.64,0,0,1-.53-.31,1.13,1.13,0,0,1-.21-.72,1,1,0,0,1,.24-.7A.66.66,0,0,1,16,30a.68.68,0,0,1,.58.36,1,1,0,0,1,.18.69Z"/><path class="cls-10" d="M13.53,36.89a1.79,1.79,0,0,1-1,.37.92.92,0,0,1-.8-.32.88.88,0,0,1-.16-.86,1.8,1.8,0,0,1,1.6-1.34,1,1,0,0,1,.8.32,1,1,0,0,1,.2,1,1.61,1.61,0,0,1-.63.85Z"/><path class="cls-4" d="M13.34,36.67a1.47,1.47,0,0,1-.77.29.77.77,0,0,1-.63-.26.66.66,0,0,1-.11-.66,1.3,1.3,0,0,1,.45-.72,1.26,1.26,0,0,1,.77-.3.71.71,0,0,1,.62.25.79.79,0,0,1,.13.76,1.2,1.2,0,0,1-.46.64Z"/><path class="cls-10" d="M8.47,37.74a1.18,1.18,0,0,1-.73-.12.7.7,0,0,1-.39-.48.67.67,0,0,1,.21-.6,1.28,1.28,0,0,1,.67-.35A1.22,1.22,0,0,1,9,36.3a.63.63,0,0,1,.38.48.7.7,0,0,1-.22.66,1.15,1.15,0,0,1-.68.3Z"/><path class="cls-4" d="M8.41,37.52l-.56-.1a.46.46,0,0,1-.29-.35.54.54,0,0,1,.16-.45.89.89,0,0,1,.51-.26.8.8,0,0,1,.57.09.49.49,0,0,1,.11.83.77.77,0,0,1-.5.24Z"/><path class="cls-10" d="M4.82,36.78a1,1,0,0,1-.41-.5.57.57,0,0,1,0-.51.58.58,0,0,1,.45-.26,1.08,1.08,0,0,1,1.06.63.57.57,0,0,1,0,.51.6.6,0,0,1-.51.29,1,1,0,0,1-.59-.16Z"/><path class="cls-4" d="M4.91,36.57a.67.67,0,0,1-.3-.35.36.36,0,0,1,0-.35l.32-.2a.74.74,0,0,1,.45.1.72.72,0,0,1,.31.34.42.42,0,0,1,0,.38.4.4,0,0,1-.35.21.6.6,0,0,1-.42-.13Z"/><path class="cls-11" d="M41.07,5.17a.42.42,0,0,1-.21.32.63.63,0,0,1-.45.09A.62.62,0,0,1,40,5.41.48.48,0,0,1,39.85,5a.41.41,0,0,1,.21-.32.73.73,0,0,1,.45-.1.68.68,0,0,1,.41.18.4.4,0,0,1,.15.37Z"/><path class="cls-11" d="M28.66,6.13a5.65,5.65,0,0,1-1.3-.69C26.57,5,26,4.58,25.61,4.3s-.7-.64-.59-.79.46,0,1,.36,1,.8,1.6,1.28c.74.6,1.09.93,1.06,1Z"/></g></g></svg>