<svg xmlns="http://www.w3.org/2000/svg" viewBox="0 0 56.91 52.98"><defs><style>.cls-1{fill:#bcb2ba;}.cls-1,.cls-10,.cls-2,.cls-3,.cls-4,.cls-5,.cls-6,.cls-7,.cls-8,.cls-9{fill-rule:evenodd;}.cls-2{fill:#a39aa1;}.cls-3{fill:#0d131a;}.cls-4{fill:#59bdec;}.cls-5{fill:#4ca4cd;}.cls-6{fill:#fffac6;}.cls-7{fill:#dcd8ac;}.cls-8{fill:#ed8599;}.cls-9{fill:#fff;}.cls-10{fill:#36a0da;}</style></defs><title>Asset 36@</title><g id="Layer_2" data-name="Layer 2"><g id="Layer_1-2" data-name="Layer 1"><path class="cls-1" d="M41.58,39.06l-8,3.85-8-12.52,2-4.36a11.16,11.16,0,0,1,4.93,1.28,11.56,11.56,0,0,1,3.64,2.61,34.75,34.75,0,0,1,3,3.73,14.94,14.94,0,0,1,2.36,5.41Z"/><path class="cls-2" d="M41,37.32l.54,1.74-.93,0a8.79,8.79,0,0,0-1.51.2,15.67,15.67,0,0,0-2.45.82,11,11,0,0,0-1.15.57L35,41a7.94,7.94,0,0,1-1.14-1,4.58,4.58,0,0,1-.69-.78c0-.09-.14-.29-.27-.61l-.19-.46A2.47,2.47,0,0,0,33.77,38l.92-.2a9.11,9.11,0,0,0,1.72,0,3.88,3.88,0,0,0,2.41-.88,1.85,1.85,0,0,1,.56-.4l.42-.19,1-.59c.58-.35.88-.57.91-.68a1.4,1.4,0,0,1-.26.93l-.39.38-.22.2.06.26.13.47Z"/><path class="cls-3" d="M41.52,39a20.78,20.78,0,0,0-5.17-8.88,12,12,0,0,0-8.58-4l0-.31A12.28,12.28,0,0,1,36.89,30a19,19,0,0,1,3,4.21A21.69,21.69,0,0,1,41.77,39s0,0-.11.07-.13,0-.14,0Z"/><path class="cls-1" d="M32.35,22.7a1.19,1.19,0,0,1,.73.48,1.57,1.57,0,0,1,.19,1.23l-.24,1-.2.69a7.17,7.17,0,0,0-.11.76,5.1,5.1,0,0,0,0,.83,3,3,0,0,0,.21,1l.28.53-.67.31-3.58-2.12-.53-.95a4.29,4.29,0,0,1,.77-.43,3.49,3.49,0,0,0,1-1.28c.08-.15.32-.53.73-1.15a2.37,2.37,0,0,1,.75-.73,1,1,0,0,1,.7-.21Z"/><path class="cls-1" d="M40.54,30.56a1,1,0,0,1,0,.64l-.4.64a5.47,5.47,0,0,0-.41.65l-.37.68a1.72,1.72,0,0,0-.24.59,1.69,1.69,0,0,1-.07.48L37.65,34l-1.8-1.22-.32-1.72a4.12,4.12,0,0,0,1.09-.13,3.35,3.35,0,0,0,.93-.31l.8-.44.7-.39.72,0c.33.06.53.14.59.26a1.32,1.32,0,0,1,.18.55Z"/><path class="cls-1" d="M40.07,34.55a3.16,3.16,0,0,1,1.23.21c.34.15.5.33.46.55l-.11.46a1,1,0,0,1-.29.41l-.53.37a1.22,1.22,0,0,0-.38.33l-.3.44c-.15.22-.25.37-.29.45s-.22,0-.52-.17l-.44-.34-.66-2.63,1.83-.08Z"/><path class="cls-2" d="M33.28,23.64a1.27,1.27,0,0,1,0,.57,5,5,0,0,1-.19.93,10.33,10.33,0,0,0-.28,1.26,11.29,11.29,0,0,0-.15,1.14,2.8,2.8,0,0,0,.19,1,4.56,4.56,0,0,0,.32.76q.06.09-.06.06a1.21,1.21,0,0,1-.32-.18,2,2,0,0,1-.72-.89,4.16,4.16,0,0,1-.19-1.68,4.1,4.1,0,0,1,.41-1.76,5.54,5.54,0,0,0,.42-1.07,4,4,0,0,0,.17-.67l.17.21.22.36Z"/><path class="cls-2" d="M40.3,30.22l.19.35a1.06,1.06,0,0,1-.17.91c-.58.94-.91,1.5-1,1.71a4.39,4.39,0,0,0-.14.58c-.06.25-.11.39-.15.41s-.19,0-.27-.18a2.55,2.55,0,0,1-.11-.73A1.94,1.94,0,0,1,39,31.78c.24-.23.51-.52.82-.87a2.89,2.89,0,0,0,.51-.69Z"/><path class="cls-2" d="M41.71,35a3.09,3.09,0,0,1-.15.89,1.11,1.11,0,0,1-.4.38l-.51.31a5.21,5.21,0,0,0-.8,1.22c-.13.24-.39.21-.77-.09a1.27,1.27,0,0,1-.33-.38c-.07-.15-.07-.26,0-.33a4.22,4.22,0,0,1,1-.63c.39-.21.7-.37,1-.48a2,2,0,0,0,.52-.38l.49-.51Z"/><path class="cls-3" d="M41.22,42.65a5,5,0,0,0,2.23-.95l3-2a22.36,22.36,0,0,1,2.9-1.75c.95-.42,1.6-.46,2-.11s.06,1-.63,2.16a20.64,20.64,0,0,1-3,3.76,21.18,21.18,0,0,1-4.56,3.6A11.22,11.22,0,0,1,37.76,49a23.25,23.25,0,0,1-5.62-.57,14,14,0,0,1-4.29-1.66,4.81,4.81,0,0,1-2.19-2.47,3.09,3.09,0,0,1,.69-2.94,2.86,2.86,0,0,1,2.36-.88,18.45,18.45,0,0,1,3.71.54l4.39,1a24.62,24.62,0,0,0,4.41.61Z"/><path class="cls-4" d="M40.9,42.87a5.63,5.63,0,0,0,2.4-.93c.5-.29,1.55-.95,3.15-2a27.08,27.08,0,0,1,2.95-1.74c.92-.44,1.51-.5,1.77-.19s-.11.85-.83,1.95a23.79,23.79,0,0,1-3,3.59A21.71,21.71,0,0,1,43,47a10.56,10.56,0,0,1-5.09,1.6,24.2,24.2,0,0,1-5.38-.52,14.71,14.71,0,0,1-4.23-1.55,5,5,0,0,1-2.26-2.27,2.7,2.7,0,0,1,.46-2.74,2.62,2.62,0,0,1,2.25-.83,16.76,16.76,0,0,1,3.62.53l4.27,1a23.07,23.07,0,0,0,4.24.61Z"/><path class="cls-5" d="M39.77,45.79c1.78,0,3.72-.83,5.84-2.49A59.38,59.38,0,0,0,51.14,38l0,0c.17.2-.11.85-.83,1.95a23.79,23.79,0,0,1-3,3.59A21.71,21.71,0,0,1,43,47a10.56,10.56,0,0,1-5.09,1.6,21.08,21.08,0,0,1-8-1.31c-2.34-.93-3.67-2.08-4-3.46a50.6,50.6,0,0,0,13.84,1.93Z"/><path class="cls-4" d="M43.25,39.44a23.51,23.51,0,0,1,2.61.93,15.34,15.34,0,0,0,2.78.84,14.61,14.61,0,0,0,2.16.34A14.19,14.19,0,0,0,53,41.36,17.33,17.33,0,0,0,55,41a2.38,2.38,0,0,1,.77-.12,1.21,1.21,0,0,1,.69.22.87.87,0,0,1,.3.88,1.6,1.6,0,0,1-.15.55c-1,.68-1.61,1.07-1.81,1.17s-.56.41-1.31,1L51,46.83a16.61,16.61,0,0,1-4.83,2.85,17.29,17.29,0,0,1-6.38,1.21q-7.41,0-11.24-4-4.23-4.36-4.23-13.68,0-1.42.15-3.9A29.29,29.29,0,0,1,24.84,26a15.91,15.91,0,0,0,.25-2.35A12,12,0,0,0,25,21.23c0-.13,0-.55-.06-1.27a.64.64,0,0,0-.4-.61,5.53,5.53,0,0,1-1,.47,7.92,7.92,0,0,1-2.68.47,5.18,5.18,0,0,1-2.25-.43,2.37,2.37,0,0,1-.47-.3L18,19.43c-.08.12-.46.18-1.12.18q-1.56,0-2.31-2A10.76,10.76,0,0,1,14,13.86,10.47,10.47,0,0,1,14.83,10a12.89,12.89,0,0,1,.57-1.25l.26-.47-.39-.43a1.89,1.89,0,0,1-.45-.77A1.12,1.12,0,0,1,15,6.41a2.54,2.54,0,0,1,.47-.56,1.07,1.07,0,0,1,.8-.08l.57.12a1.53,1.53,0,0,1-.5-.49,3.15,3.15,0,0,1-.51-1.86,3.19,3.19,0,0,1,1-2.49A3.26,3.26,0,0,1,19.16.19a4.51,4.51,0,0,1,1,.11,5,5,0,0,1,1.25.52,3.34,3.34,0,0,1,1.16,1.33,7.63,7.63,0,0,1,.44.93,6.48,6.48,0,0,1,3.55.19,6.39,6.39,0,0,1,1.54.67l.16-.19a2.62,2.62,0,0,1,.49-.45,3.37,3.37,0,0,1,2-.64,4.94,4.94,0,0,1,3.08,1.09A4,4,0,0,1,35.55,7.1,4,4,0,0,1,34,10.3a4.87,4.87,0,0,1-1.16.72,2.26,2.26,0,0,1-.77.23l-.79-.08-.39-.08-.06.78c-.05.58-.11,1.05-.17,1.39A14.47,14.47,0,0,1,30,15.44c-.31.86-.62,1.68-.94,2.46a16.74,16.74,0,0,0-.75,2.51,26.93,26.93,0,0,0-.54,3,19.41,19.41,0,0,0,0,3.46c0,.77.11,1.47.18,2.09l.48.56c.37.42.7.77,1,1a8.16,8.16,0,0,1,1.74,2.33A11.27,11.27,0,0,1,31.83,35l.68,2.66A6.16,6.16,0,0,0,34,40,7.82,7.82,0,0,0,35,41a13.25,13.25,0,0,1,3.69-1.58,14.27,14.27,0,0,1,2.63-.36,6.91,6.91,0,0,1,1.89.39Z"/><path class="cls-5" d="M21.19,20.28a8.21,8.21,0,0,0,2.35-.56,8.87,8.87,0,0,0,2.56-1.58A3.76,3.76,0,0,1,25,20.64a7.14,7.14,0,0,0,0-.83.65.65,0,0,0-.4-.46,6,6,0,0,1-.93.43,7.74,7.74,0,0,1-2.43.5Z"/><path class="cls-6" d="M25.66,16.9a1.86,1.86,0,0,0,.58-.82l.13-.43a.3.3,0,0,1,.3-.23.38.38,0,0,1,.32.19.92.92,0,0,1,.12.55,3.92,3.92,0,0,1-1,2,5.41,5.41,0,0,1-2.34,1.56,8.32,8.32,0,0,1-2.94.55,5.19,5.19,0,0,1-2.13-.43L18,19.43l1.32-.56a14.09,14.09,0,0,1,2.34-.74l2.63-.7a6.08,6.08,0,0,0,1.37-.53Z"/><path class="cls-6" d="M9,43.75a9.71,9.71,0,0,1,1-.59l.94,0c.5,0,.8,0,.88-.16l.92-1.29,0,1.13a6.76,6.76,0,0,1-.55,2.3,20.85,20.85,0,0,1-1.29,2.43,7.44,7.44,0,0,1-2,2.1A15,15,0,0,1,5.68,51.2a8,8,0,0,1-3.15.68L.85,51.72c-.37-.07-.59-.17-.64-.33a1,1,0,0,1,0-.69,1.38,1.38,0,0,1,.69-.77,1.92,1.92,0,0,0,.85.13,4.74,4.74,0,0,0,1.46-.93,11.19,11.19,0,0,0,1.67-1.52A17.91,17.91,0,0,1,6.5,46.07a13.55,13.55,0,0,0,1.44-1.38A5.1,5.1,0,0,1,9,43.75Z"/><path class="cls-7" d="M11.82,43l.93-1.31,0,1.13a6.76,6.76,0,0,1-.55,2.3c-.57,1.22-1,2-1.24,2.46A6.7,6.7,0,0,1,9,49.68a15.1,15.1,0,0,1-3.27,1.6A8.56,8.56,0,0,1,2.56,52L.79,51.79c-.42-.08-.65-.2-.7-.35a.83.83,0,0,1,0-.32l.07-.34a.7.7,0,0,0,.49.35,2.17,2.17,0,0,0,.71.1,10.42,10.42,0,0,0,6.7-2.36A10.43,10.43,0,0,0,11.82,43Z"/><path class="cls-4" d="M7.2,39.49a8.41,8.41,0,0,1,1.18-.78,2.81,2.81,0,0,1,1.4-.4,3.84,3.84,0,0,1,1.42.37,3.09,3.09,0,0,1,1.06.74,2.7,2.7,0,0,1,.39,1.38,8.4,8.4,0,0,1,.06,1L11.08,43.6s-.33.18-.9.46a7.12,7.12,0,0,0-1.31.76,9.34,9.34,0,0,0-1.26,1.3L6.28,47.74a7.72,7.72,0,0,1-2,1.65,8.58,8.58,0,0,1-2.35,1l-.8,0a1,1,0,0,1-.49-.31l1.9-1.75A5.34,5.34,0,0,0,3.39,47,14.3,14.3,0,0,0,4,45.48c.07-.21.29-.76.66-1.64s.57-1.38.64-1.61a5.77,5.77,0,0,1,.76-1.42,5.61,5.61,0,0,1,1.1-1.32Z"/><path class="cls-3" d="M5.19,42.09a7.43,7.43,0,0,1,2.34-3,4.18,4.18,0,0,1,3.1-.77,2.3,2.3,0,0,1,2.12,2.1,6,6,0,0,1,0,3.58,11.34,11.34,0,0,1-2,4,10.36,10.36,0,0,1-6.44,3.8A10.1,10.1,0,0,1,1.48,52C.69,52,.24,51.8.13,51.55a1.11,1.11,0,0,1-.06-.9A2,2,0,0,1,.66,50l1-.78A7.26,7.26,0,0,0,2.76,48,13.8,13.8,0,0,0,4,45.21c.65-1.76,1-2.8,1.19-3.12Zm-1,3.61A13.47,13.47,0,0,1,3.15,48a6.74,6.74,0,0,1-1,1.19l-1,.81a3.3,3.3,0,0,0-.68.65.71.71,0,0,0-.06.69q.12.27,1.23.33a10.52,10.52,0,0,0,2.66-.23,9.8,9.8,0,0,0,6.11-3.52,11.64,11.64,0,0,0,1.7-3,8.51,8.51,0,0,0,.58-2.93,3.89,3.89,0,0,0-.57-2.26,2.22,2.22,0,0,0-1.75-1,3.65,3.65,0,0,0-3,1.16,9.18,9.18,0,0,0-2,3.12L4.22,45.7Z"/><path class="cls-8" d="M19.45,18.85l2.05-.79q.48-.16,3.12-.78a1.78,1.78,0,0,1-.73.94A7,7,0,0,1,22,19a3.54,3.54,0,0,1-1.94.11,2.09,2.09,0,0,1-.48-.19l-.17-.1Z"/><path class="cls-6" d="M52.28,45.19a15.09,15.09,0,0,1,2.89-2,12.09,12.09,0,0,1,1.42-.67,16,16,0,0,1-2.43,3.58,21.87,21.87,0,0,1-3.66,3.32A16.18,16.18,0,0,1,41,52.84a18.3,18.3,0,0,1-7-1.44,20.2,20.2,0,0,1-2.09-1L31.22,50c-.54.17-1.18.34-1.93.51a17.74,17.74,0,0,1-3.83.51Q17.95,51,14,48a8.8,8.8,0,0,1-3.57-7.38,14.51,14.51,0,0,1,2-7.24,21.42,21.42,0,0,1,1.61-2.4l1.22-1.52c.65-.83,1.33-1.76,2-2.8a28.2,28.2,0,0,0,1.87-3.1,8,8,0,0,0,.75-2.32l.07-1a10.17,10.17,0,0,0,3.79-.58,2.77,2.77,0,0,0,1-.59c.42,0,.75.32,1,.9a3.72,3.72,0,0,1,.33,1.55,20.51,20.51,0,0,1-.19,2.78l-.4,2.53A38.53,38.53,0,0,0,25,33.27a18.91,18.91,0,0,0,2.79,10.51,19.65,19.65,0,0,0,5,5.06,9.89,9.89,0,0,0,4.74,1.7,20,20,0,0,0,6.42-.41q3.7-.8,8.36-4.94Z"/><path class="cls-7" d="M23.24,21.64a5.18,5.18,0,0,1-3.41.06A6.93,6.93,0,0,0,20,20.64v-.4a10.17,10.17,0,0,0,3.79-.58,2.77,2.77,0,0,0,1-.59,1.13,1.13,0,0,1,.88.64,4.34,4.34,0,0,1-2.43,1.93Z"/><path class="cls-7" d="M56.42,42.59l.16,0a15.82,15.82,0,0,1-2.42,3.56,21.87,21.87,0,0,1-3.66,3.32A16.18,16.18,0,0,1,41,52.84a17.24,17.24,0,0,1-5.54-.94,18.25,18.25,0,0,1-3.42-1.53,20.62,20.62,0,0,0,17.85-1,15.57,15.57,0,0,0,6.51-6.74Z"/><path class="cls-7" d="M11.44,35.46l.09-.07Q10.09,43.54,16,47.09q5.08,3.06,14.38,2.25h.31l.54.61L29,50.51a16.49,16.49,0,0,1-3.49.46Q17.95,51,14,48a8.8,8.8,0,0,1-3.57-7.38,13.79,13.79,0,0,1,1-5.12Z"/><path class="cls-9" d="M24.67,11.19,25,14.25,23.27,15l-.59.08a5.59,5.59,0,0,1,.09-.94,3.88,3.88,0,0,1,.55-1.61,5.79,5.79,0,0,1,.91-1,2.93,2.93,0,0,1,.44-.33Z"/><path class="cls-5" d="M15.88,4.13a3.05,3.05,0,0,1,0-1.59,2,2,0,0,0,.49,1.55,3.57,3.57,0,0,0,1.57,1.27l-.81.8a3.77,3.77,0,0,1-1.25-2Z"/><path class="cls-3" d="M25.16,17.2a6.09,6.09,0,0,1-1.07.38l-2.49.64a11.3,11.3,0,0,0-1.23.42,13.37,13.37,0,0,0-1.33.57,4.67,4.67,0,0,1-2.05.5,2.54,2.54,0,0,1-2.22-1.24,8,8,0,0,1-1-4.41,11.63,11.63,0,0,1,1.41-5.25,10,10,0,0,1,3.21-3.95c.16-.11.26-.13.3-.09s0,.13-.15.23a9.8,9.8,0,0,0-2.79,3.52,11.89,11.89,0,0,0-1.55,5.54A8.78,8.78,0,0,0,15,18a2.24,2.24,0,0,0,2,1.42l.8-.11a5.06,5.06,0,0,0,.83-.27A19.42,19.42,0,0,1,21.56,18a25.3,25.3,0,0,0,4.18-1.32,2,2,0,0,0,.32-.41,2,2,0,0,0,.18-.44c0-.14.07-.21.11-.21s0,.09,0,.24a1.65,1.65,0,0,1-.19.61,1,1,0,0,1-.34.41c-.2.11-.43.23-.7.35Z"/><path class="cls-3" d="M18,17.17s0,.08,0,.19l-.1.25-.14.15h-.19a.13.13,0,0,1-.07-.14.26.26,0,0,1,.07-.16l.25-.22c.1-.07.17-.1.19-.08Z"/><path class="cls-3" d="M15.18,17.47q0-.13.06-.15a.06.06,0,0,1,.08,0l.07.12.11.19.09.16,0,.11a.09.09,0,0,1,0,.09s-.09,0-.16,0a.4.4,0,0,1-.16-.23.58.58,0,0,1-.06-.3Z"/><path class="cls-3" d="M22.67,11.15a5,5,0,0,0-.53,1.55c0,.21-.09.32-.16.33s-.07-.12,0-.4a4.44,4.44,0,0,1,.53-1.79,3.46,3.46,0,0,1,1.05-1.11c.13-.09.21-.12.24-.1s0,.1-.12.21a5.68,5.68,0,0,0-1,1.31Z"/><path class="cls-3" d="M19.51,18.82a2.38,2.38,0,0,0,1.06.23,5.86,5.86,0,0,0,2.21-.45,3.7,3.7,0,0,0,1.69-1.2l.48-.19a5.37,5.37,0,0,1-3.31,2.07A3.59,3.59,0,0,1,19.21,19l.3-.13Z"/><path class="cls-3" d="M28.32,3.76,28.08,4a7.33,7.33,0,0,0-3.17-.95,7.85,7.85,0,0,0-3.45.62c-.19.08-.28.09-.29.05s.07-.11.22-.2a6.08,6.08,0,0,1,3.44-.79,7.23,7.23,0,0,1,3.49,1Z"/><path class="cls-5" d="M29.32,8.87a1.76,1.76,0,0,0,.68.65,3,3,0,0,0,1.71.53,4.35,4.35,0,0,0,2.4-.82c.84-.55,1.28-1.12,1.31-1.71a3.91,3.91,0,0,1-.8,2.18A3.08,3.08,0,0,1,32,11.09a2.49,2.49,0,0,1-2.26-1.18,3.21,3.21,0,0,1-.37-.82l-.05-.22Z"/><path class="cls-3" d="M23.08,3.1,22.84,3a3.88,3.88,0,0,0-1.15-1.69A3.76,3.76,0,0,0,19.16.34a3.09,3.09,0,0,0-2.31,1A3.16,3.16,0,0,0,16,3.58a3,3,0,0,0,.26,1.21,3.68,3.68,0,0,0,.94,1.29L16.72,6a2.5,2.5,0,0,1-.64-.84,3.13,3.13,0,0,1-.46-1.56,3.5,3.5,0,0,1,1-2.57,3.49,3.49,0,0,1,2.6-1,3.87,3.87,0,0,1,2.6.91A4,4,0,0,1,23.08,3.1Z"/><path class="cls-3" d="M28.45,3.43a3.31,3.31,0,0,1,2.29-.87A4.77,4.77,0,0,1,34.29,4a4.58,4.58,0,0,1,1.39,3.3,3.93,3.93,0,0,1-1,2.71A3.46,3.46,0,0,1,32,11.25a3,3,0,0,1-2.09-.84,2.59,2.59,0,0,1-.16-3.74A2.16,2.16,0,0,1,31.35,6a1.51,1.51,0,0,1,1.56,1.57c0,.22,0,.32-.08.32s-.09-.1-.1-.31a1.09,1.09,0,0,0-.4-.8,1.41,1.41,0,0,0-1-.39,1.74,1.74,0,0,0-1.28.57,2.23,2.23,0,0,0,.08,3.17,2.45,2.45,0,0,0,1.84.79,3,3,0,0,0,2.14-1,3.5,3.5,0,0,0,1.1-2.61,4.25,4.25,0,0,0-1.34-3.15,4.39,4.39,0,0,0-3.17-1.28,3.14,3.14,0,0,0-2,.74,3,3,0,0,0-1.1,2c0,.19-.08.28-.15.27s-.1-.12-.09-.3a3.4,3.4,0,0,1,1.12-2.18Z"/><path class="cls-3" d="M31.21,11.09a14,14,0,0,1-1.37,5.34,16.63,16.63,0,0,0-1.49,4.09,19.89,19.89,0,0,0-.52,4.54c0,.72,0,1.62.12,2.69.06.89.12,1.5.17,1.85s0,.38-.05.4-.15-.09-.2-.33a14.67,14.67,0,0,1-.18-1.85c-.08-1.06-.12-2-.12-2.74a21,21,0,0,1,.48-4.77,20.49,20.49,0,0,1,1.48-4,15.27,15.27,0,0,0,.91-2.7,9.26,9.26,0,0,0,.39-2.69l.38.16Z"/><path class="cls-3" d="M25.63,10.73a1.84,1.84,0,0,1,.54.82,3.87,3.87,0,0,1,.2,1.26,4.3,4.3,0,0,1-.08.82h0l-.66.35c-.23.11-.65.27-1.28.49a3.25,3.25,0,0,1-.39-1.67,3.69,3.69,0,0,1,.23-1.32,1.81,1.81,0,0,1,.32-.26,4.1,4.1,0,0,1,1.16-.5Z"/><path class="cls-3" d="M25.34,10.82a1.22,1.22,0,0,1,.49.71,3.91,3.91,0,0,1,.2,1.28,4.23,4.23,0,0,1-.12,1l-.32.17c-.24.11-.57.24-1,.39a3.4,3.4,0,0,1-.31-1.57,4.31,4.31,0,0,1,.1-1,2.3,2.3,0,0,1,.28-.72,4.46,4.46,0,0,1,.69-.3Z"/><path class="cls-9" d="M25,11.32c.08-.15.17-.23.27-.23s.18.08.26.23a1.29,1.29,0,0,1,.13.59,1.16,1.16,0,0,1-.15.62c-.08.14-.17.21-.25.21-.27,0-.4-.28-.4-.82a1.16,1.16,0,0,1,.14-.6Z"/><path class="cls-3" d="M25.73,10.59c.15,0,.22,0,.22.05s-.07.09-.2.12a3.84,3.84,0,0,0-2.16,1.53,4.84,4.84,0,0,0-.8,2.78q0,.23-.09.21c-.06,0-.09-.07-.11-.19a4.12,4.12,0,0,1,.8-3.08,3.13,3.13,0,0,1,2.34-1.42Z"/><path class="cls-3" d="M23.73,14.59l1-.35c.4-.16.86-.37,1.37-.62h.18c0,.05,0,.09-.1.15a11.8,11.8,0,0,1-1.78.87,9.78,9.78,0,0,1-1.71.52s-.08,0-.09-.12,0-.16.1-.17l1-.27Z"/><path class="cls-4" d="M19.69,6.83l.91,0,.58.5L18.4,10.83l-1.18.53a2,2,0,0,0-.15-.61l-1-2L15.37,8A2.64,2.64,0,0,1,14.71,7a1,1,0,0,1,0-.6L15,6a.85.85,0,0,1,.43-.26L16,5.66a3.07,3.07,0,0,1,1.13.39l1.3.59a5.15,5.15,0,0,0,1.29.19Z"/><path class="cls-5" d="M14.88,6.61c0,.13.28.37.75.7a10.2,10.2,0,0,1,1.16.9,4.25,4.25,0,0,1,.82,1.49A2.8,2.8,0,0,1,17.89,11a.55.55,0,0,1-.36.39q-.29.12-.36-.27a8.46,8.46,0,0,0-.3-1,6.54,6.54,0,0,0-.38-.81L16,8.68a3.32,3.32,0,0,0-.46-.49l-.35-.34-.3-.35a.86.86,0,0,1-.11-.6l.07-.29Z"/><path class="cls-3" d="M20.32,6.85q.25,0,.27.06s-.07.08-.25.1L19.06,7a4.76,4.76,0,0,1-1.18-.28l-.82-.39c-.3-.16-.5-.27-.6-.34a.74.74,0,0,0-.41-.12.9.9,0,0,0-.48.09,1.74,1.74,0,0,0-.4.41,1.11,1.11,0,0,0-.23.51,1,1,0,0,0,.07.43,1,1,0,0,0,.21.35l.69.76a7.1,7.1,0,0,1,.78,1,6.64,6.64,0,0,1,.4,1,3.66,3.66,0,0,1,.18.76q0,.22,0,.24s-.07-.06-.12-.22l-.25-.76a4.22,4.22,0,0,0-.41-.87c-.15-.23-.39-.54-.7-.92A9.63,9.63,0,0,0,15,7.8a1.32,1.32,0,0,1-.33-.49,1.05,1.05,0,0,1-.08-.52,1.4,1.4,0,0,1,.29-.63,1.72,1.72,0,0,1,.49-.49,1.24,1.24,0,0,1,.69-.13,1,1,0,0,1,.49.16l.66.38a6.9,6.9,0,0,0,.72.35,5.58,5.58,0,0,0,1.09.29,7,7,0,0,0,1.27.13Z"/><path class="cls-10" d="M29.47,41.49a1.22,1.22,0,0,1-.24-.6.35.35,0,0,1,.27-.39.75.75,0,0,1,.59,0,.83.83,0,0,1,.39.51.86.86,0,0,1,0,.55c-.06.2-.16.31-.3.34a.46.46,0,0,1-.41-.07,1.55,1.55,0,0,1-.3-.37Z"/><path class="cls-10" d="M28.32,35.67A1.38,1.38,0,0,1,28.1,35a.5.5,0,0,1,.24-.43q.27-.19.81.09A1.88,1.88,0,0,1,30,35.78a3.07,3.07,0,0,1,.14,1.34c-.05.38-.18.59-.39.64a.63.63,0,0,1-.53-.11,1.31,1.31,0,0,1-.49-.87,4.2,4.2,0,0,0-.44-1.11Z"/><path class="cls-10" d="M29.72,37.47c-.12,0-.25,0-.38-.18a1.91,1.91,0,0,1-.35-.77,3.93,3.93,0,0,0-.53-1.18.86.86,0,0,1-.13-.3.34.34,0,0,1,.17-.25c.12-.1.34,0,.65.26a1.66,1.66,0,0,1,.6.86q.39,1.4,0,1.56Z"/><path class="cls-10" d="M30.06,41.63h-.15l-.19-.28L29.5,41a.14.14,0,0,1,.11-.22.45.45,0,0,1,.34,0,.51.51,0,0,1,.27.32.79.79,0,0,1,.05.36q0,.1-.21.15Z"/><path class="cls-3" d="M28.84,30.12a9.82,9.82,0,0,1-1-1.19l0-.44a6.14,6.14,0,0,0,1,1.3L30.05,31A7.86,7.86,0,0,1,32,35.17,9.68,9.68,0,0,0,33,38.41a6.13,6.13,0,0,0,2.22,2.45l-.36.29a7.52,7.52,0,0,1-2.27-2.64,11.5,11.5,0,0,1-1-3.4,8,8,0,0,0-1.66-3.73l-1.1-1.26Z"/><path class="cls-3" d="M31.48,30.52a7.16,7.16,0,0,0-1.69-1.82,7.85,7.85,0,0,0-1.95-1.25l0-.31A6.71,6.71,0,0,1,30,28.51a7.4,7.4,0,0,1,1.63,1.93c.07.15.1.24.07.28s-.1,0-.2-.2Z"/><path class="cls-3" d="M33.65,35.23c0-.21,0-.33.05-.34s.13.07.17.29A7.76,7.76,0,0,0,35.05,38a6.5,6.5,0,0,0,2,1.94l-.3.09a5.57,5.57,0,0,1-1.92-1.7,7.55,7.55,0,0,1-1.22-3.11Z"/><path class="cls-3" d="M43.62,39.3c.39.13,1.14.42,2.26.88a14.3,14.3,0,0,0,4.8,1.27,18.91,18.91,0,0,0,2.54-.24l2-.33a1.57,1.57,0,0,1,1.38.25c.39.32.42.79.09,1.4a21,21,0,0,1-6.43,7.25A15.6,15.6,0,0,1,41.08,53a18.79,18.79,0,0,1-6.53-1.15,11.31,11.31,0,0,1-4-2.32c-.15-.15-.19-.23-.12-.26s.16,0,.29.09a17.42,17.42,0,0,0,10.41,3.2A15.14,15.14,0,0,0,49.33,50a22.23,22.23,0,0,0,7.16-7.6.72.72,0,0,0-.05-1,1.28,1.28,0,0,0-1.19-.29l-1.85.3a18.76,18.76,0,0,1-2.71.25,14.66,14.66,0,0,1-5.08-1.21c-1.25-.49-2-.77-2.18-.83a5.68,5.68,0,0,0-1.79-.38,12,12,0,0,0-4.33.76,15.91,15.91,0,0,0-3.69,2.13c-.15.12-.24.16-.26.13s0-.11.18-.24a10.35,10.35,0,0,1,3.35-2.21,12.22,12.22,0,0,1,4.74-.94,6.76,6.76,0,0,1,2,.4Z"/><path class="cls-3" d="M31.38,22.9a1.07,1.07,0,0,1,1.05-.3,1.65,1.65,0,0,1,1,.8,1.5,1.5,0,0,1,0,1.07c-.08.26-.18.63-.29,1.11s-.21.87-.24,1.07a5.7,5.7,0,0,0,0,1.31,3,3,0,0,0,.28,1.09c.09.18.11.28.05.3s-.14-.06-.23-.24a4,4,0,0,1-.38-1.26,6.18,6.18,0,0,1,0-1.27c0-.1.09-.44.23-1l.25-1.16a1.5,1.5,0,0,0-.07-.94,1.12,1.12,0,0,0-.74-.56c-.29-.09-.6,0-.94.37a6,6,0,0,0-1,1.6,3.43,3.43,0,0,1-.73,1,3.68,3.68,0,0,1-1.06.7h-.26c0-.06,0-.12.15-.19a4,4,0,0,0,1-.66,3.7,3.7,0,0,0,.63-1,5.23,5.23,0,0,1,1.36-1.86Z"/><path class="cls-3" d="M40.76,30.57a1.37,1.37,0,0,1-.19.79l-.4.67-.46.75a5.27,5.27,0,0,0-.3.66,3.29,3.29,0,0,0-.21.67c0,.1-.07.15-.13.13S39,34.16,39,34a3,3,0,0,1,.47-1.45l.79-1.34a.93.93,0,0,0-.11-1.1.74.74,0,0,0-.55-.23,1.25,1.25,0,0,0-.53.13l-.75.34c-.43.19-.73.32-.9.41a3.36,3.36,0,0,1-.73.19l-.85,0c-.18,0-.25-.06-.23-.12s.1-.09.25-.09l.79-.05a2,2,0,0,0,.58-.23c.19-.1.51-.26.95-.46l.71-.33a1.61,1.61,0,0,1,.83-.16,1.18,1.18,0,0,1,.69.33,1,1,0,0,1,.37.65Z"/><path class="cls-3" d="M38.11,34.63c0-.09.16-.13.39-.13h1.59c1.07,0,1.66.15,1.76.34a.89.89,0,0,1,0,.81,2.27,2.27,0,0,1-.89,1,2.93,2.93,0,0,0-.93,1c-.1.17-.17.24-.21.23s0-.13,0-.32a1.72,1.72,0,0,1,.33-.59,3.61,3.61,0,0,1,.67-.68,2.39,2.39,0,0,0,.69-.7.63.63,0,0,0,.1-.6q-.11-.21-1.47-.24H38.45c-.25,0-.37-.07-.34-.15Z"/><path class="cls-3" d="M20.59,20.16a7.85,7.85,0,0,0,2.58-.4A10.12,10.12,0,0,0,26,18.13c.11-.08.19-.12.22-.11s0,.08-.09.2a5.32,5.32,0,0,1-2.4,1.63,8.73,8.73,0,0,1-3.13.58,5.29,5.29,0,0,1-1.62-.3,4.66,4.66,0,0,1-1.26-.59l.29-.11.76.36a4.9,4.9,0,0,0,1.83.37Z"/><path class="cls-3" d="M20,20.24l.26,0a9,9,0,0,1-1.47,4.61c-.38.63-.88,1.36-1.51,2.2l-1.74,2.24a29.93,29.93,0,0,0-3.24,4.95,14,14,0,0,0-1.48,6.16,8.91,8.91,0,0,0,2.29,6.31,11.55,11.55,0,0,0,5.5,3.14,22.7,22.7,0,0,0,6.69.77,24.25,24.25,0,0,0,5.84-.79l.18.17a12.11,12.11,0,0,1-3.09.79,23,23,0,0,1-3.47.28q-6.53,0-10.31-2.54a9.19,9.19,0,0,1-4.14-8.13,14.17,14.17,0,0,1,1.51-6.28,30.43,30.43,0,0,1,3.33-5.09l1.78-2.27c.65-.84,1.17-1.57,1.55-2.18A8.31,8.31,0,0,0,20,20.24Z"/><path class="cls-10" d="M28.21,16.79c-.08,0-.09-.26,0-.78,0-.26.06-.56.11-.9,0-.12.14-.18.37-.19s.34.05.36.15l0,.24a.91.91,0,0,1,0,.34,2,2,0,0,1-.35.69q-.32.45-.45.45Z"/><path class="cls-10" d="M27.59,17.84c.08,0,.14.11.19.32a1,1,0,0,1,0,.52,1.38,1.38,0,0,1-.21.42c-.12.16-.21.24-.3.24s-.16-.07-.19-.22a1.44,1.44,0,0,1,0-.62,1,1,0,0,1,.2-.46c.1-.13.19-.2.27-.2Z"/></g></g></svg>