<svg xmlns="http://www.w3.org/2000/svg" viewBox="0 0 43.25 41.05"><defs><style>.cls-1{fill:#84cabf;}.cls-1,.cls-10,.cls-11,.cls-2,.cls-3,.cls-4,.cls-5,.cls-6,.cls-7,.cls-8,.cls-9{fill-rule:evenodd;}.cls-2{fill:#f2e100;}.cls-3{fill:#eeeeef;}.cls-4{fill:#cf7100;}.cls-5{fill:#c6000b;}.cls-6{fill:#fff;}.cls-7{fill:#0d131a;}.cls-8{fill:#cbbd00;}.cls-9{fill:#72b0a6;}.cls-10{fill:#a95b00;}.cls-11{fill:#c8c9ca;}</style></defs><title>Asset 143@</title><g id="Layer_2" data-name="Layer 2"><g id="Layer_1-2" data-name="Layer 1"><path class="cls-1" d="M19.72,21a10.27,10.27,0,0,1-2.16-2.82A28.71,28.71,0,0,1,15.81,15a20,20,0,0,1-.87-2.44c-.37-1.19-.49-1.83-.36-1.93a4.35,4.35,0,0,1,1.78-.26l.34-1.15c.26-.78.49-1.17.67-1.17a16.58,16.58,0,0,1,2.93,2.16l2.6,2.15.55,1.11A10.77,10.77,0,0,0,25.54,16l-.14,1.57a4.26,4.26,0,0,1-1.48,2.62,5.36,5.36,0,0,1-2.34,1.18A3,3,0,0,1,19.72,21Z"/><path class="cls-1" d="M37.6,2.11Q40.32,4,40.31,6.45a1.13,1.13,0,0,1-.25.75l-.38-.51a6.67,6.67,0,0,0-.83,2.93c0,1.24.19,1.86.58,1.86a.64.64,0,0,0,.48-.25l.17-.26.32.4a2.22,2.22,0,0,1,.31,1.12,1.52,1.52,0,0,1-.4,1l-.4.34A5.42,5.42,0,0,1,37.47,17a8.75,8.75,0,0,1-5.08,1.57,10.28,10.28,0,0,1-7.39-3,9,9,0,0,1-3.06-6.64A7.93,7.93,0,0,1,25,2.46,10,10,0,0,1,31.51.17,10.18,10.18,0,0,1,37.6,2.11Z"/><path class="cls-1" d="M37.32,17.45c.36.16.72.33,1.08.52.58.31,1.37.81,2.39,1.5h.73c.49,0,.74.08.76.19a3.27,3.27,0,0,1-.18,1.16l.42.19c.29.13.44.25.47.36s-.25.55-.87,1.16a.8.8,0,0,1,.14.79c-.1.21-.58.47-1.45.78a8.84,8.84,0,0,1-2.82.5,8.29,8.29,0,0,1-2.35-.34l-.88-.35a17,17,0,0,0,.12-2.85,7.72,7.72,0,0,0-.34-1.89l-.31-.84,1.46-.46a7.44,7.44,0,0,0,1.2-.61l.43.19Z"/><path class="cls-1" d="M17,27a2.32,2.32,0,0,1,1.43.72,5.86,5.86,0,0,1,1.51,2.18q1.32,3.24.86,4.26a7.73,7.73,0,0,1-.9,1.38c-.64.86-1.07,1.47-1.3,1.83l-1.46,2.11a5.66,5.66,0,0,1-1,1.19c-.12.06-.65-.4-1.6-1.35a16,16,0,0,1-2.47.89,5.45,5.45,0,0,1-.24-1.62C10.61,38,10,37.55,10,37.35s.26-.43.81-.92l.82-.71a19.45,19.45,0,0,1,.31-2.1,9.77,9.77,0,0,1,1.26-3.51Q15.24,27,17,27Z"/><path class="cls-1" d="M30,32.33a9.11,9.11,0,0,0,2-2L33,29.07l1.19,1.11A4.36,4.36,0,0,1,35.31,33a6.89,6.89,0,0,1-.16,1.66l-.17.43.94.47c.6.33.89.57.85.71s-.33.41-.89.79c0,0,0,.1.1.19s.14.16.08.2a17.72,17.72,0,0,1-3.17,1.42,7.71,7.71,0,0,1-2.36.62c-.2,0-.6-.41-1.21-1.18a9.24,9.24,0,0,1-1-1.41,10.77,10.77,0,0,0-1.48-1.39l-1.37-1.13A23.83,23.83,0,0,0,30,32.33Z"/><path class="cls-1" d="M.36,21.07A6.93,6.93,0,0,1,2.41,16,6.37,6.37,0,0,1,7.06,14,4.84,4.84,0,0,1,11,15.75a7.35,7.35,0,0,1,1.52,4.92l-.22,2.21A29.13,29.13,0,0,0,12,26a6.61,6.61,0,0,0,.64,2.79,5.3,5.3,0,0,0,.63,1.07L12.81,31l-.55,1.42a9.5,9.5,0,0,1-1.94-.29,10.31,10.31,0,0,1-4-1.93,21,21,0,0,1-4.12-4.29A8.54,8.54,0,0,1,.36,21.07Z"/><path class="cls-2" d="M25.54,16l1.16.75a18.27,18.27,0,0,0,2.82,1.38,7.63,7.63,0,0,0,3.18.42l1.53-.2.36,1.16A10.68,10.68,0,0,1,35,22.16,12.43,12.43,0,0,1,31.4,31a11.56,11.56,0,0,1-8.68,3.78,5.33,5.33,0,0,1-1.51-.19l-.47-.21A4.59,4.59,0,0,0,20.79,33a9.06,9.06,0,0,0-1.15-3.59,4.85,4.85,0,0,0-2.06-2.29A1.36,1.36,0,0,0,17,27l-.24,0,.67-.6a8.76,8.76,0,0,0,1.39-2A8.07,8.07,0,0,0,19.62,22l.1-1,.32.15a3.06,3.06,0,0,0,.87.18,4.07,4.07,0,0,0,2.89-1.08,4.67,4.67,0,0,0,1.59-2.77L25.54,16Z"/><path class="cls-3" d="M18.76,20.08a5.38,5.38,0,0,0,1,1l-.17,1.06a8.74,8.74,0,0,1-.8,2.23,9.11,9.11,0,0,1-1.39,1.92l-.78.76-.35.12-.73.31a3.54,3.54,0,0,0-.77.63l-.4.44c.07-.43.16-.9.28-1.4a6.87,6.87,0,0,1,.64-2,9.75,9.75,0,0,1,1-1.16,9.53,9.53,0,0,0,1.09-1.43,5.55,5.55,0,0,0,.55-2.17L18,19.07l.77,1Z"/><path class="cls-4" d="M17.91,20.36a5.23,5.23,0,0,1-.54,2.28,8.82,8.82,0,0,1-1.2,1.5,7.54,7.54,0,0,0-1,1.19,11.4,11.4,0,0,0-.82,3.07l-1,1.5a3.31,3.31,0,0,1-.63-1A7.58,7.58,0,0,1,12,25.7a18,18,0,0,1,1.85-8.09,12.29,12.29,0,0,1,1.85-2.87l1,2,1.14,2.17v1.44Z"/><polygon class="cls-3" points="20.58 10.49 21.83 9.62 22.51 12.25 20.58 10.49 20.58 10.49"/><path class="cls-5" d="M27.74,9.26a2.52,2.52,0,0,1,0-1.07,9.43,9.43,0,0,1,.37-1.89c.53-1.72,1.35-2.59,2.46-2.59.45,0,.78.32,1,.94a4.43,4.43,0,0,1-.17,2.81,8.38,8.38,0,0,1-.75,1.63,2.11,2.11,0,0,1-.75.84,2.12,2.12,0,0,1-1.17-.22q-.86-.3-.93-.45Z"/><path class="cls-5" d="M39.68,6.69c.11,0,.25.17.42.49a3.47,3.47,0,0,1,.34,1.62,4.8,4.8,0,0,1-.37,1.94c-.24.53-.48.8-.73.8S38.79,11,38.79,10a6.84,6.84,0,0,1,.44-2.4l.45-.91Z"/><path class="cls-6" d="M29.92,10a5.31,5.31,0,0,0,1-1.23,13.54,13.54,0,0,0,.65-1.39L31.4,8.59c-.13.84-.28,1.31-.46,1.4l-.67.07-.35-.1Z"/><path class="cls-7" d="M30.05,4.88c.19,0,.34.23.44.59a3.06,3.06,0,0,1,0,1.32A2.6,2.6,0,0,1,30,7.91c-.24.31-.48.44-.73.39s-.41-.27-.49-.65a2.72,2.72,0,0,1,0-1.2,2.81,2.81,0,0,1,.56-1.23c.24-.27.46-.38.66-.34Z"/><path class="cls-7" d="M39.1,10.23c-.12,0-.18-.2-.2-.47A3.21,3.21,0,0,1,39,9a2.68,2.68,0,0,1,.29-.78c.15-.27.29-.37.42-.31s.21.24.22.53a3.57,3.57,0,0,1-.09.87,1.82,1.82,0,0,1-.35.71q-.23.27-.36.24Z"/><path class="cls-6" d="M30.37,3.83a.94.94,0,0,1,.37.53,1.67,1.67,0,0,1,0,1,1.31,1.31,0,0,1-.58.77.8.8,0,0,1-1.26-.44,1.66,1.66,0,0,1,.08-1,1.33,1.33,0,0,1,.69-.73c.3-.15.53-.18.69-.08Z"/><path class="cls-6" d="M39.66,7.09c.07,0,.12.11.16.27a1.51,1.51,0,0,1,0,.52c-.12.52-.26.77-.44.74s-.17-.11-.2-.27a1.42,1.42,0,0,1,0-.57c.14-.51.29-.73.45-.69Z"/><path class="cls-8" d="M25.54,16,27,16.8a17.56,17.56,0,0,0,3.54,1.35,8.74,8.74,0,0,0,2.54.21l1.21-.13.17.43a3.62,3.62,0,0,1-.8.49,5.49,5.49,0,0,1-2.31.48,6.51,6.51,0,0,1-3.43-1.42A7.66,7.66,0,0,1,25.54,16Z"/><path class="cls-8" d="M29.48,32.65a11.52,11.52,0,0,1-6.65,2.13l-1.48-.19-.61-.21.12-.54a3.42,3.42,0,0,0,0-1.16l-.21-1.1-.08-.51a16.47,16.47,0,0,0,5.77.76c2.54,0,4.39-.48,5.56-1.31a10.76,10.76,0,0,1-2.4,2.13Z"/><path class="cls-9" d="M18.65,12.91a.77.77,0,0,1-.28.45c-.09.06-.17,0-.21-.2a6,6,0,0,1-.08-1.35l0-.72a1,1,0,0,1,.12-.55c.08-.15.19,0,.32.3a3.21,3.21,0,0,1,.09,2.07Z"/><path class="cls-9" d="M19.64,21a11.47,11.47,0,0,1-2-2.64,25.06,25.06,0,0,1-1.68-3c-.26-.61-.53-1.33-.8-2.16s-.38-1.24-.46-1.61-.08-.66.05-.75.44.14.85.75l4.24,5.13c2.3,2.78,3.33,4.24,3.07,4.38a3.27,3.27,0,0,1-1.46.4A2.57,2.57,0,0,1,19.64,21Z"/><path class="cls-9" d="M37.81,24.59a7.34,7.34,0,0,1-2.28-.33l-.77-.35L35,22.16a10.53,10.53,0,0,0,2.82.88,14,14,0,0,0,4.49.28,2.29,2.29,0,0,1-.88.64,8.46,8.46,0,0,1-3.57.63Z"/><path class="cls-9" d="M29.63,32.62a1,1,0,0,0-.35,1.18,3.22,3.22,0,0,0,1,1.49,5.79,5.79,0,0,0,4.76,1.47l-.34-.15c-.26-.1-.38-.15-.35-.16l1.24-.12,1.24-.26a2.82,2.82,0,0,1-.94,1s0,.08.06.2.09.17,0,.19c-.32.2-1,.55-2,1a10.81,10.81,0,0,1-2.59.93l-1,.05a12.61,12.61,0,0,1-1.94-2.59l-3-2.37.89-.32,1.53-.62a16.13,16.13,0,0,0,1.78-.94Z"/><path class="cls-9" d="M10.06,37.43c0-.14.31-.06,1,.25s1,.59.89.87l-1.05-.36-.87-.76Z"/><path class="cls-9" d="M14.47,39.31,13,40l-.63.13-.38,0,.1-.37c0,.07.36-.05.93-.36a8.83,8.83,0,0,1,1.21-.57c.22-.06.34,0,.39.13a.24.24,0,0,1-.14.3Z"/><path class="cls-9" d="M15.59,40.36c.08,0,.31-.18.71-.65a7.67,7.67,0,0,0,.89-1.27L19,34.87c1-2.06,1.47-3.29,1.4-3.67l.32,1.15a3.68,3.68,0,0,1,0,2A4.54,4.54,0,0,1,20,35.64a13.37,13.37,0,0,0-1.15,1.46,26.44,26.44,0,0,1-2.6,3.69l-.38-.21-.24-.22Z"/><path class="cls-9" d="M12.9,30.68l-.64,1.69a7,7,0,0,1-1.94-.27,11.44,11.44,0,0,1-4.39-2.23,18.19,18.19,0,0,1-3.59-3.82l-1-1.77a15.51,15.51,0,0,0,2.52,1.24A9.58,9.58,0,0,0,6,25a11.24,11.24,0,0,0,3.45,4.09,6.27,6.27,0,0,0,3.43,1.55Z"/><path class="cls-9" d="M.62,18.83a6.92,6.92,0,0,1,.69-1.55l.39-.59A6.59,6.59,0,0,0,2,20.31a4.79,4.79,0,0,0,1.71,2.21,3.69,3.69,0,0,0,2.24.72,2.27,2.27,0,0,0,1.83-.9l-.14.56a4.21,4.21,0,0,1-.47,1A3.39,3.39,0,0,1,6,25a3.4,3.4,0,0,1-1.75.55A3.28,3.28,0,0,1,2.46,25,3.59,3.59,0,0,1,1.2,23.75a5.84,5.84,0,0,1-.58-4.92Z"/><path class="cls-10" d="M13.53,18.48a12.09,12.09,0,0,1,.85-1.69l.38-.56a13.57,13.57,0,0,0-.59,5.59c.13,2.13.44,3.45.92,4l-.73,2.62-1,1.5a2.25,2.25,0,0,1-.67-.89,7.14,7.14,0,0,1-.56-3.52,20.49,20.49,0,0,1,1.45-7Z"/><path class="cls-11" d="M17.87,25.74,16.82,27l-.5.15a5,5,0,0,0-.88.4l-1.08.85c.14-.76.25-1.28.33-1.57l.24-.69.16-.36q.11.33.84.39a3.6,3.6,0,0,0,1.94-.43Z"/><path class="cls-7" d="M39.35,3.56a5.85,5.85,0,0,1,1.12,2.21,1.74,1.74,0,0,1-.22,1.59s-.07,0-.13-.19a.63.63,0,0,1,0-.33A1.6,1.6,0,0,0,40,5.46a7,7,0,0,0-1.26-1.95A8.34,8.34,0,0,0,33.55.57,10.4,10.4,0,0,0,26.12,2a8.11,8.11,0,0,0-3.8,5.8,7.93,7.93,0,0,0,2,6.61A10.85,10.85,0,0,0,31,18.05a8.65,8.65,0,0,0,5.59-.88,5.6,5.6,0,0,0,3.08-3.35h.21c.11.05.16.11.15.16a5.93,5.93,0,0,1-3.23,3.54,9.18,9.18,0,0,1-5.86.91,11.58,11.58,0,0,1-7.09-3.86,8.21,8.21,0,0,1-2.13-6.92,8.45,8.45,0,0,1,3.91-6.1,11.28,11.28,0,0,1,8-1.38,8.52,8.52,0,0,1,5.73,3.38Z"/><path class="cls-7" d="M40,11s0-.07.08-.14.14-.07.17,0a2.11,2.11,0,0,1,.65,1.72,2,2,0,0,1-.77,1.58l-.25,0a1.78,1.78,0,0,0-.33-.25,1,1,0,0,0-.49-.16l-1.24.51a4.63,4.63,0,0,1-1.87.48A4.51,4.51,0,0,1,34.49,14a14,14,0,0,0-1.56-.86c-.32-.1-.95-.24-1.88-.42L29,12.38a2.94,2.94,0,0,1-1.54-.65,3.56,3.56,0,0,1-1.07-1.26c-.12-.24-.13-.38-.05-.41s.17.06.28.29a2.89,2.89,0,0,0,1,1.1A3.26,3.26,0,0,0,29,12l2.14.31a15.41,15.41,0,0,1,1.93.46,16.25,16.25,0,0,1,1.53.83,5.88,5.88,0,0,0,1.35.68,4.41,4.41,0,0,0,1.8-.46L39,13.28a1.51,1.51,0,0,1,1,.41,1.66,1.66,0,0,0,.45-1.2A2,2,0,0,0,40,11Z"/><path class="cls-7" d="M34.75,12c.09,0,.23.07.41.35s.23.45.11.51-.26-.07-.41-.36-.19-.46-.11-.5Z"/><path class="cls-7" d="M37.8,12.7c0,.09,0,.22-.26.39s-.35.21-.39.15,0-.19.26-.39.34-.25.39-.15Z"/><path class="cls-7" d="M39.34,5.54l.26,0s0,.11-.16.2L39.17,6l-.28.43c-.07.14-.14.19-.23.15s-.09-.14,0-.29a1.45,1.45,0,0,1,.71-.75Z"/><path class="cls-7" d="M31.3,3.05c-.15-.07-.21-.14-.19-.21s.12-.06.27,0a1.75,1.75,0,0,1,.68.52,1.55,1.55,0,0,1,.34.83c0,.25,0,.37-.1.38s-.16-.11-.19-.34a1.7,1.7,0,0,0-.81-1.18Z"/><path class="cls-7" d="M31.57,9.06c-.2.69-.38,1.06-.54,1.13a3.44,3.44,0,0,1-1.9-.16c-1-.25-1.53-.52-1.61-.82a4,4,0,0,1,0-1.32,9.24,9.24,0,0,1,.41-1.95c.56-1.68,1.4-2.48,2.5-2.41s1.63,1.18,1.51,3.3a10.82,10.82,0,0,1-.37,2.23ZM30.41,3.92a1.43,1.43,0,0,0-1.21.62,5.57,5.57,0,0,0-.93,2A10.32,10.32,0,0,0,28,8.15a4.06,4.06,0,0,0-.07,1l.05.07.22.15a5.53,5.53,0,0,0,1.53.43l1.16.08a3,3,0,0,0,.36-1A9.77,9.77,0,0,0,31.51,7l0-.7a3.64,3.64,0,0,0-.38-1.92,1,1,0,0,0-.75-.43Z"/><path class="cls-7" d="M31.42,5c0-.06,0-.09.16-.1s.18,0,.18,0a5.92,5.92,0,0,1-.22,2.52,4.74,4.74,0,0,1-1.42,2.42l-.18,0c-.09,0-.12-.06-.08-.09a4.76,4.76,0,0,0,1.35-2.36A5.66,5.66,0,0,0,31.42,5Z"/><path class="cls-7" d="M40.07,7.59a1.86,1.86,0,0,0-.37-.72,6.22,6.22,0,0,0-.51,1.53A8.7,8.7,0,0,0,39,10a3.3,3.3,0,0,0,.15,1.11c0,.13.1.19.14.19a.37.37,0,0,0,.29-.1,1.48,1.48,0,0,0,.42-.77,6.28,6.28,0,0,0,.21-1.37V8.81a4.33,4.33,0,0,0-.17-1.22Zm-.24-1.31c.09-.1.13-.1.12,0l-.12.36a2,2,0,0,1,.61,1.07,3.65,3.65,0,0,1,.17,1.42,4.47,4.47,0,0,1-.51,2.1.88.88,0,0,1-.82.51c-.2,0-.35-.16-.47-.44a4.57,4.57,0,0,1,0-2.43,5.43,5.43,0,0,1,1-2.58Z"/><path class="cls-7" d="M20.55,10.68l-.27-.28a2.52,2.52,0,0,1,1.58-1c.08,0,.12.05.13.19s0,.23-.09.24a2.89,2.89,0,0,0-1.35.81Z"/><path class="cls-7" d="M15.64,14.47l.28.56a19.23,19.23,0,0,0-2.07,3.49,16.72,16.72,0,0,0-1.52,6q-.28,3.7,1.12,5.28s0,.09-.08.18-.16.11-.2.07c-1-1.11-1.44-3-1.33-5.53a15.73,15.73,0,0,1,1.41-6.23,19,19,0,0,1,2.39-3.8Z"/><path class="cls-7" d="M17.62,20.87a7.12,7.12,0,0,0,0-2.29s.05,0,.21.12.23.22.24.28a6.05,6.05,0,0,1,0,2.24A4.58,4.58,0,0,1,17.4,23l-1.18,1.36a4.5,4.5,0,0,0-.82,1,10.79,10.79,0,0,0-.55,1.49,9.35,9.35,0,0,0-.31,1.38l-.2.32-.2.17A13.56,13.56,0,0,1,14.5,27a11.27,11.27,0,0,1,.57-1.71A5.14,5.14,0,0,1,16,24l1-1.27a5.27,5.27,0,0,0,.58-1.9Z"/><path class="cls-7" d="M13.24,18.94c0-.05.07-.06.2,0s.17.05.17.1a8,8,0,0,0,.13,3.14,10.91,10.91,0,0,0,1.43,3.57s0,.1-.11.17l-.2,0a10.89,10.89,0,0,1-1.57-3.76,7.92,7.92,0,0,1,0-3.21Z"/><path class="cls-7" d="M19.49,21c0-.05.07,0,.22,0l.22.14a7.89,7.89,0,0,1-3,5.85s-.14,0-.3,0-.21-.06-.17-.09a7.77,7.77,0,0,0,2-2.46,7.14,7.14,0,0,0,1-3.47Z"/><path class="cls-7" d="M34,18.4s0-.1.14-.14.18-.06.19,0a8.66,8.66,0,0,1,.81,3.5q0,7.92-6.14,11.45a13,13,0,0,1-4.85,1.65,6.35,6.35,0,0,1-3.48-.3c-.05,0,0-.09,0-.2s.1-.16.15-.14a5.79,5.79,0,0,0,3.4.26,12.44,12.44,0,0,0,4.62-1.7,11.69,11.69,0,0,0,4.07-4.11,13.32,13.32,0,0,0,1.76-6.91A8.44,8.44,0,0,0,34,18.4Z"/><path class="cls-7" d="M24.82,19.15s0-.12.09-.24.13-.15.15-.11a4.74,4.74,0,0,0,1.69,2,8.55,8.55,0,0,0,2.93,1.31,8.84,8.84,0,0,0,2.93.3,3.88,3.88,0,0,0,2.12-.7s.09,0,.17.11S35,22,35,22a4.46,4.46,0,0,1-2.28.81,8.8,8.8,0,0,1-3.12-.24,8.53,8.53,0,0,1-2.95-1.38,5.58,5.58,0,0,1-1.79-2.06Z"/><path class="cls-7" d="M31.88,22.65a20.25,20.25,0,0,1-1.9,6q-1.74,3.92-3.1,4.87l-.17-.1c-.07-.1-.08-.16,0-.19.73-.53,1.71-2.14,2.92-4.85a21.07,21.07,0,0,0,1.92-5.81c0-.05.06-.07.19-.05s.19,0,.18.09Z"/><path class="cls-7" d="M23.39,20.39l.14.05.06.12.19,3,.14,2.7-.05.13-1.29,1.25a12.44,12.44,0,0,1-2.75,2l-.13,0-.12-.1v-.08a.21.21,0,0,1,.1-.17,14.69,14.69,0,0,0,3.88-3.08L23.4,23.5l-.18-2.92h0c0-.12.06-.18.17-.18Z"/><path class="cls-7" d="M29.36,29.14l1.79.08A8.07,8.07,0,0,0,32.89,29c.06,0,.06,0,0,.16l-.13.18a6.6,6.6,0,0,1-1.66.3,9.35,9.35,0,0,1-1.92,0A8.73,8.73,0,0,1,26,28.57a6.81,6.81,0,0,1-2.27-2,.36.36,0,0,1,0-.27c0-.12.06-.17.09-.13a6.15,6.15,0,0,0,2.32,1.91,11.61,11.61,0,0,0,3.18,1.09Z"/><path class="cls-7" d="M20.85,33.2c-.05,0-.07-.06-.05-.16s.05-.15.11-.14l2.89.28a24.07,24.07,0,0,0,3,0l.12,0,.07.11L27,34s0,.09-.14.11l-.17,0-.08-.42-3-.09-2.76-.32Z"/><path class="cls-7" d="M17.77,27.42a1.35,1.35,0,0,0-1.14-.19,3.22,3.22,0,0,0-1.34.7,8.93,8.93,0,0,0-1.92,2.39,12.53,12.53,0,0,0-1.23,3.4c-.17.74-.3,1.41-.38,2l-.07.11-1,.92c-.29.3-.44.5-.44.59s.2.24.55.45a8.58,8.58,0,0,0,1.18.63.15.15,0,0,1,.12.16A3.89,3.89,0,0,0,12.2,40a18.39,18.39,0,0,0,2.31-.84l.21,0,.78.84a1.82,1.82,0,0,0,.56.43,6.21,6.21,0,0,0,1.05-1.26l1.18-1.76c.26-.42.82-1.18,1.67-2.29l.44-.58a1.9,1.9,0,0,0,.29-1.16l-.06-.76a9.4,9.4,0,0,0-1.07-3,6.34,6.34,0,0,0-1.79-2.19Zm-6,5.83a10.88,10.88,0,0,1,1.13-3.31,6.8,6.8,0,0,1,2.78-2.83,2.14,2.14,0,0,1,2.29,0,7.53,7.53,0,0,1,2.76,4.07c.54,1.75.53,3,0,3.73-.94,1.18-1.64,2.09-2.08,2.72l-1.23,2c-.58.92-1,1.41-1.17,1.44s-.86-.43-1.68-1.51a9.85,9.85,0,0,1-1.57.82,2,2,0,0,1-1,.23c-.13,0-.21-.2-.24-.47s0-.67-.05-1.4l-1.29-.55c-.55-.27-.83-.5-.85-.7s.12-.41.42-.73a7.21,7.21,0,0,1,1.44-1.14l.37-2.34Z"/><path class="cls-7" d="M34.83,32a5.39,5.39,0,0,0-2.09-2.75s0-.1.15-.24.21-.2.25-.17A5.52,5.52,0,0,1,35.36,32a4.24,4.24,0,0,1-.12,3c1.23.53,1.84.94,1.84,1.23s-.36.52-1.08,1l-.36-.3q.93-.56.93-.72c0-.08-.18-.22-.53-.41a8.63,8.63,0,0,0-1.13-.53l-.12-.12,0-.17a4,4,0,0,0,0-3Z"/><path class="cls-7" d="M37,17.23q.16-.16.21-.15a11.5,11.5,0,0,1,2.15,1.17,8.44,8.44,0,0,1,2,1.59c.09.11.1.2,0,.26s-.15,0-.23-.06A8.15,8.15,0,0,0,39,18.45a10.77,10.77,0,0,0-2.15-1s0-.08.12-.19Z"/><path class="cls-7" d="M40.77,19.44c-.09-.08-.11-.13-.06-.13l1,0a1.15,1.15,0,0,1,.76.23.84.84,0,0,1,0,.5l-.21.72c.6.18.92.39,1,.64,0,.08-.07.23-.22.44a4,4,0,0,1-.76.8,1,1,0,0,1,.23.62c0,.22-.24.46-.7.74a6.51,6.51,0,0,1-1.8.66,8.14,8.14,0,0,1-5.28-.5c-.06,0-.06-.11,0-.25s.06-.22.11-.2a7.93,7.93,0,0,0,1.57.48l2.36.23a5.84,5.84,0,0,0,2.32-.5c.67-.3,1-.53,1-.69a1.26,1.26,0,0,0-.18-.53.18.18,0,0,1,0-.22,3.44,3.44,0,0,0,.85-1A1.72,1.72,0,0,0,42,21l-.13-.08v-.13a4.27,4.27,0,0,0,.21-1.05v0l-.46-.1-.68,0-.19-.14Z"/><path class="cls-7" d="M6.08,19.18a1.16,1.16,0,0,0-.69,0,1,1,0,0,0-.5.4c-.09.15-.17.21-.24.17s-.06-.13,0-.28a1.22,1.22,0,0,1,.64-.63,1.53,1.53,0,0,1,.88,0,2.34,2.34,0,0,1,1.46,1,3.2,3.2,0,0,1,.57,1.86A3.82,3.82,0,0,1,7,24.54a3.92,3.92,0,0,1-2.81,1.2,3.7,3.7,0,0,1-2.88-1.45A5.14,5.14,0,0,1,0,20.82a6.76,6.76,0,0,1,2.26-5.21,6.88,6.88,0,0,1,4.8-1.92,4.9,4.9,0,0,1,4.22,2,9,9,0,0,1,1.37,5.65.87.87,0,0,1-.21.55c-.13.15-.19.14-.18,0A8.66,8.66,0,0,0,11,16.06a4.57,4.57,0,0,0-3.9-1.89,6.18,6.18,0,0,0-4.19,1.7,6.35,6.35,0,0,0-2.17,5A5,5,0,0,0,1.7,24a3,3,0,0,0,2.46,1.29,3.2,3.2,0,0,0,2.41-1,3.49,3.49,0,0,0,1-2.51,3.12,3.12,0,0,0-.48-1.79,1.86,1.86,0,0,0-1-.75Z"/><path class="cls-7" d="M.26,22.35s0-.06.18,0,.21.05.22.08a15.24,15.24,0,0,0,4.8,6.81,10.79,10.79,0,0,0,6.88,2.89c.05,0,.06.08,0,.24s-.08.24-.13.24a10.89,10.89,0,0,1-7-3,15.63,15.63,0,0,1-5-7.24Z"/><path class="cls-7" d="M25.19,34.61s0-.07.21-.16.27-.12.3-.1a10.87,10.87,0,0,1,3.38,3l1,1.37c.3.38.5.57.61.56a11.33,11.33,0,0,0,3.16-.91c1.31-.54,2-.9,2-1.09s-.1-.17-.32-.29a3.42,3.42,0,0,0-.79-.31c-.29-.09-.43-.18-.4-.25l.5,0a3.07,3.07,0,0,1,1.11.44c.29.2.41.36.37.49-.16.48-1,1-2.51,1.61a7.71,7.71,0,0,1-3.26.73,10,10,0,0,1-1.92-2,13.85,13.85,0,0,0-3.46-3.09Z"/><path class="cls-7" d="M22.74,12c.06,0,.1.15.14.37s0,.29,0,.26c-.44-.28-1.49-1.09-3.14-2.44A16.33,16.33,0,0,0,17.4,8.36c-.1,0-.25.31-.45.89a7.14,7.14,0,0,0-.34,1.42c0,.31-.1.45-.19.45s-.13-.16-.13-.46a6.06,6.06,0,0,1,.3-1.8c.22-.63.45-1,.69-1s1.06.53,2.5,1.72c1.75,1.46,2.73,2.27,3,2.41Z"/><path class="cls-7" d="M25.55,16l.19.12a5.35,5.35,0,0,1-.18,1.77,5,5,0,0,1-.7,1.7,4.92,4.92,0,0,1-2.57,1.9,3,3,0,0,1-2.63-.25q-1.43-.93-3.6-5.34t-1.8-5.32c.07-.22.38-.34.93-.37l1.25.08s.06.07,0,.19,0,.18-.08.17a8.34,8.34,0,0,0-1,0,1.63,1.63,0,0,0-.63.13q-.3.84,1.67,5t3.42,5.17a2.45,2.45,0,0,0,2.3.16,4.78,4.78,0,0,0,2.29-1.81,5.15,5.15,0,0,0,.73-1.63A4,4,0,0,0,25.37,16l.18,0Z"/><path class="cls-7" d="M19.18,10.39a2.54,2.54,0,0,1,.77.67c.14.23.16.38.06.44s-.24,0-.38-.23A1.52,1.52,0,0,0,19,10.8a1.14,1.14,0,0,0-.57-.21,1.41,1.41,0,0,0-.18.71,9.27,9.27,0,0,0,0,1.56c0,.3,0,.45-.15.46s-.19-.14-.22-.44c-.14-1.69,0-2.62.3-2.78s.51,0,.93.29Z"/></g></g></svg>