<svg xmlns="http://www.w3.org/2000/svg" viewBox="0 0 46.02 44.57"><defs><style>.cls-1{fill:#005e96;}.cls-1,.cls-10,.cls-2,.cls-3,.cls-4,.cls-5,.cls-6,.cls-7,.cls-8,.cls-9{fill-rule:evenodd;}.cls-2{fill:#004c7e;}.cls-3{fill:#cf7100;}.cls-4{fill:#a95b00;}.cls-5{fill:#49312a;}.cls-6{fill:#bad4ee;}.cls-7{fill:#a1b8ce;}.cls-8{fill:#fff;}.cls-9{fill:#dbdcdc;}.cls-10{fill:#0d131a;}</style></defs><title>Asset 117@</title><g id="Layer_2" data-name="Layer 2"><g id="Layer_1-2" data-name="Layer 1"><path class="cls-1" d="M28.51,2.6l.75.88a1.84,1.84,0,0,1,.23,2.23,1.34,1.34,0,0,1-.61.42,1.58,1.58,0,0,1-1.17,0,2.62,2.62,0,0,1-1.3-1,3.13,3.13,0,0,1-.56-1.32,4.33,4.33,0,0,1-.05-1.14l.08-.47a6.89,6.89,0,0,1,.05-.73A3.28,3.28,0,0,1,26.29.3a5.36,5.36,0,0,0,.86,2.27,4,4,0,0,0,.65.75l-.15-1,.23.44a1.86,1.86,0,0,0,.53.61,2.62,2.62,0,0,1-.4-.78.92.92,0,0,1,0-.73,2.4,2.4,0,0,0,.51.76Z"/><path class="cls-2" d="M28.49,2.52l.76.92a1.88,1.88,0,0,1,.24,2.27l-.26.23a1.7,1.7,0,0,1-.51.24,3.32,3.32,0,0,0-.43-1,2.75,2.75,0,0,0-.84-1.09.76.76,0,0,1,.49.18.76.76,0,0,0,.48.17,5.43,5.43,0,0,1-2.2-4L26.29.3a5.36,5.36,0,0,0,.86,2.27,4,4,0,0,0,.65.75l-.14-1,.23.42a1.84,1.84,0,0,0,.52.59A2,2,0,0,1,28,1.75a2.49,2.49,0,0,0,.52.77Z"/><path class="cls-1" d="M33.76,36l.41.41a1.42,1.42,0,0,1,.22.65,1.83,1.83,0,0,1-.5,1.41,1.37,1.37,0,0,1-1.11.64c-.26,0-.5-.23-.73-.64a3.17,3.17,0,0,1-.4-1.14L33.76,36Z"/><path class="cls-2" d="M33.76,36l.41.41a1.42,1.42,0,0,1,.22.65,1.45,1.45,0,0,1-.1.72,3.94,3.94,0,0,0-1.42-1.22l.89-.56Z"/><path class="cls-1" d="M1.9,41.83l2.38-1.12.26.28a5.76,5.76,0,0,0,.85.69,2,2,0,0,1-1.08,2.09,3.39,3.39,0,0,1-1,.47c-.33.08-.55.06-.64-.05a3,3,0,0,1-.49-1,6.5,6.5,0,0,1-.27-1.31Z"/><path class="cls-2" d="M2.77,41.42l1.51-.71.26.28a5.76,5.76,0,0,0,.85.69,1.43,1.43,0,0,1,0,.65,5.72,5.72,0,0,0-2.62-.91Z"/><path class="cls-3" d="M2.68,27.79,7,32.37A3.24,3.24,0,0,0,5.1,35.16a.86.86,0,0,1-.25.38l-.5.53a2.1,2.1,0,0,0-.67,1.47,5.18,5.18,0,0,0,.45,1.52,2.81,2.81,0,0,1,.31,1.27,1.37,1.37,0,0,1-.47.82,2.55,2.55,0,0,1-.9.56,2.26,2.26,0,0,1-1,.18.73.73,0,0,1-.64-.36,7.24,7.24,0,0,1-.37-1.44,7.87,7.87,0,0,0-.45-1.6.88.88,0,0,1-.07-.56,4.41,4.41,0,0,1,.23-.66,9.94,9.94,0,0,0,.68-2.4,20.09,20.09,0,0,0,.13-2.49A4.4,4.4,0,0,1,2,30.53a6.82,6.82,0,0,0,.58-1.89l.07-.85Z"/><path class="cls-4" d="M2.65,28.3l0-.51,2.49,2.15c1.57,1.47,2.18,2.29,1.8,2.47a3.14,3.14,0,0,0-1.24,1.11,3.45,3.45,0,0,0-.63,1.64.86.86,0,0,1-.25.38l-.5.53a2.1,2.1,0,0,0-.67,1.47,5.18,5.18,0,0,0,.45,1.52,2.81,2.81,0,0,1,.31,1.27,1.4,1.4,0,0,1-.51.86,2.72,2.72,0,0,1-1,.57,1.67,1.67,0,0,0,.6-1,2.24,2.24,0,0,0-.12-1c-.18-.45-.29-.8-.36-1A2.27,2.27,0,0,1,3,37.63a16.93,16.93,0,0,1,.94-2.56,10.16,10.16,0,0,0,.79-2.32,2.12,2.12,0,0,0-.29-1.48,7.92,7.92,0,0,0-2-1.73,6.78,6.78,0,0,0,.24-1.24Z"/><path class="cls-1" d="M14.67,37.6l2.25.3c.43,1,.15,1.73-.83,2.07a3.49,3.49,0,0,1-1.14.18,1.27,1.27,0,0,1-.7-.14c-.23-.21-.26-.59-.1-1.13,0-.14.21-.57.52-1.28Z"/><path class="cls-2" d="M16.92,37.9a1.35,1.35,0,0,1-.37,1.84,5.22,5.22,0,0,0-.91-1,12.38,12.38,0,0,0-1.1-.84l.13-.29,2.25.3Z"/><path class="cls-3" d="M15.32,35.3l.37.1a3,3,0,0,1,.75.4,1.66,1.66,0,0,1,.63,2.05L16,38a2.08,2.08,0,0,1-1.27-.32c-.35-.24-.35-.72,0-1.42a5.19,5.19,0,0,1,.41-.69l.21-.29Z"/><path class="cls-4" d="M15.32,35.3l.37.1a3,3,0,0,1,.75.4,1.66,1.66,0,0,1,.63,2.05l-.68.13-.83,0a.86.86,0,0,0,.18-1.1A6.8,6.8,0,0,0,15,35.78l.34-.48Z"/><path class="cls-3" d="M15.17,32.35c0-1,.82-1.46,2.43-1.46a10.37,10.37,0,0,1,2.41.28,4,4,0,0,0-1.23,1.92,4.1,4.1,0,0,0-.35,1.76,4.81,4.81,0,0,1-1.64-.37,2.22,2.22,0,0,1-1.62-2.13Z"/><path class="cls-4" d="M15.17,32.35c0-1,.82-1.46,2.43-1.46a10.37,10.37,0,0,1,2.41.28,4,4,0,0,0-1.23,1.92,4.1,4.1,0,0,0-.35,1.76,4.81,4.81,0,0,1-1.64-.37,2.22,2.22,0,0,1-1.62-2.13Z"/><path class="cls-5" d="M28.66,5.52c.17-.22.46-.14.85.24a8.1,8.1,0,0,1,2.72,4.94,4.19,4.19,0,0,1-1.16,3.67A6.84,6.84,0,0,0,29.3,17a2.93,2.93,0,0,0-.12,1.91.58.58,0,0,1-.55.14c-.34-.12-.45-.71-.33-1.75a5.13,5.13,0,0,1,1.31-2.45,8.44,8.44,0,0,1,.71-.65l.45-.41c.95-1.31,1-2.91,0-4.82a11,11,0,0,0-1.18-1.87,8,8,0,0,0-.81-.91.52.52,0,0,1-.2-.34.39.39,0,0,1,.06-.32Z"/><path class="cls-5" d="M39.87,11a.48.48,0,0,1,.1.62A2.86,2.86,0,0,1,38.61,13a8.19,8.19,0,0,1-3.35.8L33.32,14a9.84,9.84,0,0,0-2.53.55q-3,1.19-1.81,4.39a3.6,3.6,0,0,1,2.31-1.15,3.74,3.74,0,0,1,2.65.47,9.48,9.48,0,0,1,2,1.75,19.23,19.23,0,0,1,1.75,2.37,2.62,2.62,0,0,0,1.72,1.18l.79.06a.75.75,0,0,0,.44-.14.21.21,0,0,1,.24,0,.44.44,0,0,1,.22.19c.14.25,0,.45-.27.61a2.5,2.5,0,0,1-2,.09,2.89,2.89,0,0,1-1.48-1.15c-1.87-2.87-3.43-4.41-4.66-4.62a3.93,3.93,0,0,0-2.29.21A2.06,2.06,0,0,0,29.13,20l-.53-.33a4.33,4.33,0,0,1-.72-2.15,3,3,0,0,1,1.3-2.85,7.66,7.66,0,0,1,3.06-1.2l3.14-.39a8.76,8.76,0,0,0,2.49-.55,3.23,3.23,0,0,0,1.52-1.38c.15-.26.31-.32.48-.17Z"/><path class="cls-1" d="M42.47,21.66l.19-.16-.13.62.21-.21a3.19,3.19,0,0,1,.61-.47,4.36,4.36,0,0,1,2.44-.65,2.8,2.8,0,0,0-.9.39l-.31.25L45,21.3l.75-.17a2.94,2.94,0,0,0-.81.55,3.32,3.32,0,0,0-.86,1.08,6,6,0,0,1-.71,1.29,1.64,1.64,0,0,1-1.44.6,1.49,1.49,0,0,1-1-.41,1,1,0,0,1-.33-.53,2.9,2.9,0,0,1,0-.95,2.4,2.4,0,0,1,.83-1.29l-.08.4v.28l.3-.51a2.14,2.14,0,0,1,.92-.77l-.26.56a3.11,3.11,0,0,0-.25.79,3.69,3.69,0,0,1,.41-.56Z"/><path class="cls-2" d="M44.89,21.18l-.31.25L45,21.3l.75-.17a2.94,2.94,0,0,0-.81.55,3.32,3.32,0,0,0-.86,1.08,6,6,0,0,1-.71,1.29,1.64,1.64,0,0,1-1.44.6,1.48,1.48,0,0,1-1-.37,1.05,1.05,0,0,1-.36-.53h.66a1.38,1.38,0,0,0,.54-.09,2.4,2.4,0,0,0,1.09-1.11l-.07.43a.81.81,0,0,0,0,.43,2.2,2.2,0,0,1,.52-.85l.7-.65c.09-.05,0,0-.14,0a1.07,1.07,0,0,0-.31.17,1.83,1.83,0,0,1,.7-.85,4.66,4.66,0,0,1,1-.46h.37a2.8,2.8,0,0,0-.9.39Z"/><path class="cls-1" d="M40.45,8a2,2,0,0,0,.62-1,4.92,4.92,0,0,0,.11-.76,1.61,1.61,0,0,1,.21.62v.53l.15-.54a4.62,4.62,0,0,0,.13-1.16,4.91,4.91,0,0,1,.45.68,2.37,2.37,0,0,1,.22.73,2.9,2.9,0,0,1,0,2.15,3.58,3.58,0,0,1-.75,1.1,1.39,1.39,0,0,1,.64-.17c.2,0,.31,0,.33.1a3.93,3.93,0,0,0-1,.73,2,2,0,0,1-1.24.56,1.11,1.11,0,0,1-.65-.17,1.28,1.28,0,0,1-.58-.84,1.83,1.83,0,0,1,.33-1.52A5.57,5.57,0,0,1,40.45,8Z"/><path class="cls-2" d="M42.12,6.41a2.31,2.31,0,0,1,.21.71,2.9,2.9,0,0,1,0,2.15,3.58,3.58,0,0,1-.75,1.1,1.39,1.39,0,0,1,.64-.17c.2,0,.31,0,.33.1a3.93,3.93,0,0,0-1,.73,2,2,0,0,1-1.24.56,1.13,1.13,0,0,1-.57-.12,1.28,1.28,0,0,1-.57-.62,1.62,1.62,0,0,0,1.44-.19,3.87,3.87,0,0,0,1.16-1.1.5.5,0,0,0-.45.13.52.52,0,0,1-.46.13,3.75,3.75,0,0,0,1.05-1.94,3.7,3.7,0,0,0-.18-2.13,4.87,4.87,0,0,1,.42.66Z"/><path class="cls-3" d="M22.18,11.42A22.08,22.08,0,0,1,24.52,15a15.06,15.06,0,0,0,2.06,3.07,6.74,6.74,0,0,0,1,.81l1,.62a3,3,0,0,1,1.32,1.83A15.53,15.53,0,0,1,30.05,26l-.21,2.11a13.34,13.34,0,0,0,0,1.84,1.64,1.64,0,0,0,.77,1.11l.47.35c.13.12.19.23.16.32A2,2,0,0,0,31.61,33a8.64,8.64,0,0,0,1.8,2.15,1.23,1.23,0,0,1,.4.79,1.25,1.25,0,0,1-.25.93,1.63,1.63,0,0,1-1.21.67,1.18,1.18,0,0,1-1.3-.92,6.87,6.87,0,0,0-1.17-2.11,5,5,0,0,0-1.69-1.34,5.68,5.68,0,0,0-.7-.27,1.77,1.77,0,0,1-.47-.18A7.31,7.31,0,0,1,25.56,31a9.48,9.48,0,0,0-1.4-1.67,1.1,1.1,0,0,0-1-.28,8,8,0,0,1-1.79.82l-2.83-1.82-.07-19a2.92,2.92,0,0,1,.8-.1,1.68,1.68,0,0,1,.73.25,13.67,13.67,0,0,1,2.18,2.21Z"/><path class="cls-4" d="M24.79,26.69c.08-.13.15-.08.18.15L25.13,28a7.65,7.65,0,0,0,1.73,3.75,5.29,5.29,0,0,0,1.33,1,1.6,1.6,0,0,1,.78.89,4.37,4.37,0,0,0-.78-.47,5.68,5.68,0,0,0-.7-.27,1.77,1.77,0,0,1-.47-.18A7.31,7.31,0,0,1,25.56,31a7.38,7.38,0,0,0-1.47-1.66A1.26,1.26,0,0,0,23,29.1a7.22,7.22,0,0,1-1.66.81l-2-1.28a5.17,5.17,0,0,0,3.27-.55A8.72,8.72,0,0,0,24,27.33a2.75,2.75,0,0,0,.75-.64Z"/><path class="cls-4" d="M20,9.23a13.32,13.32,0,0,1,2.18,2.19A22.08,22.08,0,0,1,24.52,15a15.06,15.06,0,0,0,2.06,3.07,6.74,6.74,0,0,0,1,.81l1,.62a3,3,0,0,1,1.32,1.83,13,13,0,0,1,.27,3c0,.63-.09,1.57-.21,2.8a27.23,27.23,0,0,0-.19-3.61,4.61,4.61,0,0,0-1.05-2.75c-1.18-.9-2.13-1.64-2.84-2.22-1.34-1.08-2-1.82-2.07-2.23q-.12-1.36-2.74-4.44c-.54-.65-1.14-1.31-1.78-2l-.8-.83A2,2,0,0,1,20,9.23Z"/><path class="cls-4" d="M31.59,33.92c-.7-.88-.83-1.61-.39-2.18A2,2,0,0,0,31.61,33a8.64,8.64,0,0,0,1.8,2.15,1.25,1.25,0,0,1,.39.78,1.23,1.23,0,0,1-.21.91,2.84,2.84,0,0,1-.14-.57,1.3,1.3,0,0,0-.18-.52,10.3,10.3,0,0,0-.76-.83,12.22,12.22,0,0,1-.92-1Z"/><path class="cls-5" d="M19.44,9.88l1,1c.45.45.82.86,1.13,1.22a10,10,0,0,1,1.87,3.28,9.76,9.76,0,0,1,.24,4.78L13.62,34.08A15,15,0,0,0,11,35h-.2q0-.08.09-.21a2.2,2.2,0,0,1,.53-.51,3.36,3.36,0,0,0-1.38.77,6.49,6.49,0,0,0-1.16,1.19c-.06.07-.1.1-.14.09s-.06-.06-.05-.14l.17-1.5L8.62,35l-.48.47c-.2.18-.28.15-.26-.11a5.38,5.38,0,0,0-.28-2.13l-.41-1.07H7.1c-.07,0-.11.15-.12.34s-.05.28-.09.29-.11-.06-.2-.24A8.88,8.88,0,0,0,5,30.45a15.94,15.94,0,0,1-1.86-2,10.22,10.22,0,0,1-1.17-2,9.64,9.64,0,0,1-.51-2q-.15-.91-.24-1.95c0-.14,0-.21,0-.21l.14.16a.93.93,0,0,0,.51.43,20.26,20.26,0,0,0-.93-2.55,9.78,9.78,0,0,0-.88-1.78,1.51,1.51,0,0,0,1.18-.25l.47-.4-.49,0c-.1,0-.14-.05-.14-.1s.05-.11.16-.16A3.21,3.21,0,0,0,2,17l.31-.33H1.21a3.09,3.09,0,0,0,.88-.79l1-1.35a22.48,22.48,0,0,1,2.81-3.36,11.07,11.07,0,0,1,4.28-2.57A5.18,5.18,0,0,1,12,8.34a1.38,1.38,0,0,0-.57-.25c-.1,0-.15-.05-.16-.1s0-.09.17-.11l1.74-.06,1,.07s0-.07-.1-.11a1.59,1.59,0,0,0-.64-.25c-.17,0-.26-.09-.27-.14s.08-.1.28-.12a4.23,4.23,0,0,1,2,.25,4,4,0,0,1,1.48.9,3,3,0,0,0-.06-1c0-.07,0-.12.06-.14h.14a1.64,1.64,0,0,1,.63.79,1.75,1.75,0,0,1,.14.49l.49-.53a3.51,3.51,0,0,0,1.13,1.79Z"/><path class="cls-1" d="M20.1,36.39l.64.16a1.86,1.86,0,0,1,.82.38,1.65,1.65,0,0,1,.22.94,4.06,4.06,0,0,1-.19,1.28c-.34,1.07-.85,1.55-1.54,1.46a1.94,1.94,0,0,1-1-.71l-.8-1,1.87-2.5Z"/><path class="cls-2" d="M18.37,39.07l-.14-.18,1.87-2.5.64.16a1.86,1.86,0,0,1,.82.38,1.49,1.49,0,0,1,.22.89A3.7,3.7,0,0,1,21.62,39,4.54,4.54,0,0,0,20,38.76a4.66,4.66,0,0,0-1.62.31Z"/><path class="cls-3" d="M15.06,28.72c.34-.24.76-.53,1.26-.85a28.46,28.46,0,0,1,2.62-1.58q3.68-1.92,2.62.67a2.94,2.94,0,0,0-.23,1,13.19,13.19,0,0,0,.1,1.44,1.41,1.41,0,0,1-.53,1.35,3.79,3.79,0,0,1-1.14.54,6.06,6.06,0,0,0-2,1,2.6,2.6,0,0,0-.68.82l.42.81a3.25,3.25,0,0,0,1.17,1.17,4.08,4.08,0,0,0,1.05.36c.2.11.33.47.4,1.08a2.22,2.22,0,0,1-.73,1.81c-.54.54-1,.73-1.43.57a1.45,1.45,0,0,1-.77-.82,9.57,9.57,0,0,0-.75-1.41,13.72,13.72,0,0,0-3.4-3,1.53,1.53,0,0,1-.65-1.53,3,3,0,0,1,.54-1.55,4.43,4.43,0,0,1,1-.86,4.65,4.65,0,0,0,1.13-1Z"/><path class="cls-4" d="M17.79,32.18a2.72,2.72,0,0,0-.72.91l.42.81a3.25,3.25,0,0,0,1.17,1.17,4.08,4.08,0,0,0,1.05.36c.2.11.33.47.4,1.08a2.22,2.22,0,0,1-.73,1.81c-.54.54-1,.73-1.43.57a1.17,1.17,0,0,1-.5-.35,3.38,3.38,0,0,1-.31-.57,1.19,1.19,0,0,1,.3-.29l.29-.22a.84.84,0,0,0,.14-.85,6.9,6.9,0,0,0-1.21-1.85,4.25,4.25,0,0,1-1-1.75,9.22,9.22,0,0,1,.07-1.4c.1-.53.3-.83.61-.89l.93,0a6.49,6.49,0,0,0,1.44-.2,3.72,3.72,0,0,0,2.65-2.64,11.06,11.06,0,0,0,.1,1.57,1.41,1.41,0,0,1-.53,1.35,3.79,3.79,0,0,1-1.14.54,6.89,6.89,0,0,0-2,.88Z"/><path class="cls-6" d="M28.39,20.57c.1,0,.2.11.29.37a2.47,2.47,0,0,1,0,1.5,3.52,3.52,0,0,1-1,1.63q-1.83,1.82-5.22.73l1.9-3a3.07,3.07,0,0,0,2,.29,2.06,2.06,0,0,0,1.73-1.28c.07-.18.14-.27.23-.28Z"/><path class="cls-7" d="M22.49,24.8l1-1.15a5.31,5.31,0,0,0,3.06.34,3,3,0,0,0,2.07-1.45,3.55,3.55,0,0,1-1.86,2.21,5.57,5.57,0,0,1-4.29.05Z"/><path class="cls-6" d="M24.32,23.07A2.79,2.79,0,0,1,21.66,25L24,21.21c.23.05.39.27.47.64a2.26,2.26,0,0,1-.1,1.22Z"/><path class="cls-7" d="M23.42,24.44a3.66,3.66,0,0,1-1.76.54l1.6-2.31a6.73,6.73,0,0,0,.36.59.56.56,0,0,0,.66.14,3,3,0,0,1-.86,1Z"/><path class="cls-3" d="M22,17a5.17,5.17,0,0,1,1.8,2.7,3.91,3.91,0,0,1-.14,2.94,6.15,6.15,0,0,1-1.36,1.81q-.45.4-1.23,1a6.85,6.85,0,0,0-.91,1.86,4.5,4.5,0,0,1-1.2,2,3.13,3.13,0,0,1-2.19.53A2.24,2.24,0,0,1,15,28.92a1.9,1.9,0,0,1-.28-1.36,6.57,6.57,0,0,0,.28-1,3.08,3.08,0,0,0-.32-.9c-.32-.76-.55-1.31-.67-1.66-.6-1.64-.7-2.83-.29-3.59l2.69-4.11A5.43,5.43,0,0,1,19,16,5.49,5.49,0,0,1,22,17Z"/><path class="cls-4" d="M15.91,20.45a3.61,3.61,0,0,0-1.49,1.13,4.79,4.79,0,0,0-.72,1.66,3.82,3.82,0,0,1,0-2.79l1.23-1.87a4.41,4.41,0,0,1,.49,1,3.5,3.5,0,0,0,.51.92Z"/><path class="cls-4" d="M23.9,19.9a3.82,3.82,0,0,1-.2,2.7,6.15,6.15,0,0,1-1.36,1.81q-.45.4-1.23,1a6.85,6.85,0,0,0-.91,1.86,4.5,4.5,0,0,1-1.2,2,2.88,2.88,0,0,1-1.57.53,3.57,3.57,0,0,1-1.69-.25l1.46-.17a2.51,2.51,0,0,0,1.29-.55,5.41,5.41,0,0,0,.58-1.46,4.15,4.15,0,0,1,.79-1.66,8,8,0,0,1,1-.8,11,11,0,0,0,1.54-1.3,4.22,4.22,0,0,0,.91-3,5.72,5.72,0,0,0-.92-3.28A5.32,5.32,0,0,1,23.9,19.9Z"/><path class="cls-5" d="M15.34,27.64A1,1,0,0,1,16,27c.31,0,.61.14.91.55a2.74,2.74,0,0,0,1.42.89,3.16,3.16,0,0,0,1.17.21c-.05.7-.53,1.15-1.43,1.38a3.38,3.38,0,0,1-1.14.07,1.86,1.86,0,0,1-.92-.31,1.6,1.6,0,0,1-.69-2.14Z"/><path class="cls-5" d="M15.26,28.89a.81.81,0,0,1,1.13-.27,4.74,4.74,0,0,0,.52.42,1.92,1.92,0,0,0,.53.29,1,1,0,0,0,.88-.12.85.85,0,0,0,.39-.68,2.63,2.63,0,0,0,.81.11c-.05.7-.53,1.15-1.43,1.38a3.38,3.38,0,0,1-1.14.07,1.86,1.86,0,0,1-.92-.31,2.07,2.07,0,0,1-.77-.89Z"/><path class="cls-8" d="M16.75,21.8A4.75,4.75,0,0,1,17,23.05a2.91,2.91,0,0,1-.39,1.68,3.17,3.17,0,0,1-.73-1.15,1.32,1.32,0,0,1-.1-.75,2.11,2.11,0,0,1,.61-.76l.39-.27Z"/><path class="cls-9" d="M16.75,21.8A4.75,4.75,0,0,1,17,23.05a2.91,2.91,0,0,1-.39,1.68l0-.05a3.12,3.12,0,0,0,.07-1.34,2.5,2.5,0,0,0-.4-1.13l.38-.3.17-.11Z"/><path class="cls-6" d="M22.74,19a.72.72,0,0,1-.11.4.28.28,0,0,1-.52,0A.74.74,0,0,1,22,19a.72.72,0,0,1,.1-.4.31.31,0,0,1,.26-.17.29.29,0,0,1,.26.17.7.7,0,0,1,.11.4Z"/><path class="cls-7" d="M22.08,19.29a.4.4,0,0,0,.33-.12l.32-.31V19a.72.72,0,0,1-.11.4.31.31,0,0,1-.26.17c-.11,0-.21-.08-.29-.23Z"/><path class="cls-6" d="M22.41,21.24a.71.71,0,0,1-.35.39.44.44,0,0,1-.38.05.36.36,0,0,1-.18-.31,1,1,0,0,1,.09-.52,1,1,0,0,1,.3-.43.34.34,0,0,1,.34-.09.47.47,0,0,1,.23.35.89.89,0,0,1-.05.56Z"/><path class="cls-7" d="M21.5,21.38c.12.08.28.06.5-.05a1.28,1.28,0,0,0,.48-.44.78.78,0,0,1-.07.35.71.71,0,0,1-.35.39.44.44,0,0,1-.38.05.33.33,0,0,1-.18-.3Z"/><path class="cls-6" d="M21.73,23a1.37,1.37,0,0,1-.15.88,1.33,1.33,0,0,1-.61.61.91.91,0,0,1-.69.09.54.54,0,0,1-.36-.48,1.38,1.38,0,0,1,.17-.81,1.73,1.73,0,0,1,.6-.68.79.79,0,0,1,.67-.14c.2.06.32.24.37.53Z"/><path class="cls-7" d="M19.94,24.24c.17.1.47.05.89-.14a2,2,0,0,0,.9-.69,1.29,1.29,0,0,1-.15.51,1.33,1.33,0,0,1-.61.61.91.91,0,0,1-.69.09.54.54,0,0,1-.34-.38Z"/><path class="cls-6" d="M17.27,17.06a1.91,1.91,0,0,1,.08,1.08,3.33,3.33,0,0,1-.47,1.22,2.61,2.61,0,0,1-2.34,1.37,1.43,1.43,0,0,1-1.14-.51,1.71,1.71,0,0,1-.35-.7l2.08-3.25a1.16,1.16,0,0,1,1-.14,1.47,1.47,0,0,1,1.15.93Z"/><path class="cls-7" d="M13.4,20.22a1.71,1.71,0,0,1-.35-.7l2.15-1c0,1.36.12,2,.44,2a2.38,2.38,0,0,1-1.1.24,1.43,1.43,0,0,1-1.14-.51Z"/><path class="cls-6" d="M12.56,10.05a3,3,0,0,1,1-.26c.31,0,.43,0,.35.12a7.53,7.53,0,0,0-.63,1,6.49,6.49,0,0,0-.55,1.33,2.92,2.92,0,0,0,.54,2.22,6.83,6.83,0,0,0,2.26,2.17,1.23,1.23,0,0,1,.55.86A2.38,2.38,0,0,1,16,18.64a2.11,2.11,0,0,1-.69,1,1.62,1.62,0,0,1-1.22.34,4.48,4.48,0,0,1-2.85-2A6.89,6.89,0,0,1,9.64,14.4a3.7,3.7,0,0,1,.78-2.85,5.32,5.32,0,0,1,2.14-1.5Z"/><path class="cls-7" d="M12.66,10.85a3.08,3.08,0,0,1,1.26-.94,7.53,7.53,0,0,0-.63,1,6.49,6.49,0,0,0-.55,1.33A2.63,2.63,0,0,0,13,13.94l-.27-.24a2.08,2.08,0,0,1-.08-2.85Z"/><path class="cls-7" d="M9.68,13.23a4.6,4.6,0,0,0,1.25,3.06,14.76,14.76,0,0,0,4.33,3.34,1.09,1.09,0,0,1-.51.34,2.56,2.56,0,0,1-.69,0,4.48,4.48,0,0,1-2.85-2A6.89,6.89,0,0,1,9.64,14.4a4.12,4.12,0,0,1,0-1.17Z"/><path class="cls-10" d="M16.69,23.42a.36.36,0,0,1,.17-.07.16.16,0,0,1,.13,0,.14.14,0,0,1,0,.14l-.12.15a.45.45,0,0,1-.18.07.17.17,0,0,1-.13-.05.12.12,0,0,1,0-.14.4.4,0,0,1,.12-.15Z"/><path class="cls-10" d="M33.77,36.1l.11-.1.41.33a1,1,0,0,1,.26.58,1.92,1.92,0,0,1-.19,1,2.73,2.73,0,0,1-.5.79,2.1,2.1,0,0,1-.59.45,1.1,1.1,0,0,1-.56.15c-.29,0-.55-.24-.78-.67a3.34,3.34,0,0,1-.37-1.29l.17.1a2.73,2.73,0,0,0,.38,1,1,1,0,0,0,.68.54.79.79,0,0,0,.44-.12,2,2,0,0,0,.47-.37,2.27,2.27,0,0,0,.45-.66,1.38,1.38,0,0,0,.14-.8,1.24,1.24,0,0,0-.18-.57,2,2,0,0,0-.34-.36Z"/><path class="cls-10" d="M4.22,40.8l0-.06.09-.08a1.77,1.77,0,0,0,.66.55c.33.2.5.33.53.42a1.74,1.74,0,0,1-.39,1.57,3.45,3.45,0,0,1-1.3,1.07,3.82,3.82,0,0,1-.76.28c-.27.05-.45,0-.55-.09a3.32,3.32,0,0,1-.48-1.18,10.37,10.37,0,0,1-.26-1.44l.2,0a7.19,7.19,0,0,0,.26,1.29,3,3,0,0,0,.48,1c0,.06.17.07.36,0a2.54,2.54,0,0,0,.71-.23,3.14,3.14,0,0,0,1-.77A1.74,1.74,0,0,0,5.33,42l0-.27a6.88,6.88,0,0,1-.83-.68l-.25-.26Z"/><path class="cls-10" d="M2.46,28.66l.09-.87.24.18-.07.8a6.68,6.68,0,0,1-.57,1.81,3.73,3.73,0,0,0-.35,1.11,6.46,6.46,0,0,0-.06,1,15.87,15.87,0,0,1-.13,2.16,10,10,0,0,1-.32,1.43q-.14.42-.36,1a1.53,1.53,0,0,0,0,1.32,2.39,2.39,0,0,1,.19.7l.14.89a7.2,7.2,0,0,0,.34,1.28.55.55,0,0,0,.37.26,1.45,1.45,0,0,0,.62,0,2.64,2.64,0,0,0,1.14-.5,1.37,1.37,0,0,0,.61-.9,1.51,1.51,0,0,0-.07-.61L4,39.08l-.29-.66a2.39,2.39,0,0,1-.19-.79,1.72,1.72,0,0,1,.2-1,3.46,3.46,0,0,1,.58-.75l.39-.41A1.55,1.55,0,0,0,5,35.15a3.37,3.37,0,0,1,.49-1.51,3.66,3.66,0,0,1,1.22-1.19,1.08,1.08,0,0,0,.11.21,2.92,2.92,0,0,0-1.4,2.42.72.72,0,0,1-.22.33l-.41.41a6.79,6.79,0,0,0-.68.8,1.57,1.57,0,0,0-.33,1,2.33,2.33,0,0,0,.2.75l.31.67.27.66a1.45,1.45,0,0,1,.08.67A1.7,1.7,0,0,1,4,41.41a2.72,2.72,0,0,1-1.23.6l-.86.08a.67.67,0,0,1-.55-.28A3.89,3.89,0,0,1,1.15,41L1,40a6.63,6.63,0,0,0-.44-1.43A1.1,1.1,0,0,1,.39,38a2.43,2.43,0,0,1,.2-.67l.4-1a7.88,7.88,0,0,0,.36-1.45,15.07,15.07,0,0,0,.14-2.12c-.05-.47-.07-.81-.07-1a2.35,2.35,0,0,1,.32-1.11,6.24,6.24,0,0,0,.72-1.93Z"/><path class="cls-10" d="M15.19,40a2.41,2.41,0,0,0,1.33-.4c.53-.37.63-.94.31-1.71l.18-.07c.38.91.3,1.56-.23,1.94a3.48,3.48,0,0,1-1.59.48c-.63,0-1,0-1.17-.11s-.25-.56-.1-1.06a13.21,13.21,0,0,1,.54-1.27l.12-.28.17.07-.12.29A7,7,0,0,0,14.21,39c-.12.44-.08.74.1.91a1.51,1.51,0,0,0,.88.1Z"/><path class="cls-10" d="M14.25,37.3A2.16,2.16,0,0,1,14.69,36l.56-.75.15.12-.46.69a2,2,0,0,0-.38,1.22.48.48,0,0,0,.21.35,2.27,2.27,0,0,0,1.41.26l.87-.13,0,.19a5.73,5.73,0,0,1-1,.16,2.52,2.52,0,0,1-1.54-.28.76.76,0,0,1-.32-.52Z"/><path class="cls-10" d="M18.53,35l-.2-.09a4.27,4.27,0,0,1,.29-1.72,3.67,3.67,0,0,1,1.21-1.9l.39-.08a4.42,4.42,0,0,0-1.28,2A4.34,4.34,0,0,0,18.53,35Z"/><path class="cls-10" d="M28.81,5.5a.24.24,0,0,0-.14.18.57.57,0,0,0,0,.22.44.44,0,0,0,.15.22l.66.7a9.62,9.62,0,0,1,1.24,1.77,4.9,4.9,0,0,1,.1,5.23l-.2,0a4.83,4.83,0,0,0-.08-5.11,9.38,9.38,0,0,0-1.18-1.74l-.64-.69A.66.66,0,0,1,28.55,6a.59.59,0,0,1,0-.32.34.34,0,0,1,.25-.29l.29,0a1.11,1.11,0,0,1,.47.3,10.35,10.35,0,0,1,2.11,2.73,6.33,6.33,0,0,1,.77,2.86,4.54,4.54,0,0,1-.64,2.38l-.18,0a4.32,4.32,0,0,0,.59-2.31,6.19,6.19,0,0,0-.7-2.79,10,10,0,0,0-2-2.66c-.28-.26-.49-.36-.65-.32Z"/><path class="cls-10" d="M29.2,17a6.83,6.83,0,0,1,1.59-2.43l.38-.1A7.25,7.25,0,0,0,29.39,17a3,3,0,0,0-.16,1.67l-.15.2A2.92,2.92,0,0,1,29.2,17Z"/><path class="cls-10" d="M39.29,11.15l.12.12a3.35,3.35,0,0,1-1.56,1.34,9.1,9.1,0,0,1-2.46.54l-.77.08a24.4,24.4,0,0,0-2.79.39,7.34,7.34,0,0,0-2.61,1.1A2.9,2.9,0,0,0,28,17.53a4.09,4.09,0,0,0,.7,2.08H28.5a4.43,4.43,0,0,1-.76-2.15A3,3,0,0,1,29,14.55a7.11,7.11,0,0,1,2.7-1.1c.55-.12,1.51-.24,2.87-.38l.77-.08a9,9,0,0,0,2.42-.52,3.16,3.16,0,0,0,1.5-1.32Z"/><path class="cls-10" d="M38.34,13.08a2.87,2.87,0,0,0,1.56-1.52v0l.16,0,0,.06a3,3,0,0,1-1.22,1.43,7.32,7.32,0,0,1-3.4.88L35,14a20.14,20.14,0,0,0-3.06.33,4.4,4.4,0,0,0-2.8,1.53,2.77,2.77,0,0,0-.35,1.56A4.16,4.16,0,0,0,29,18.76a3.81,3.81,0,0,1,2.32-1.15,3.61,3.61,0,0,1,2.55.45,10.47,10.47,0,0,1,1.94,1.67,18.86,18.86,0,0,1,1.92,2.57,2.5,2.5,0,0,0,1.07.94,2.63,2.63,0,0,0,.9.25,1.33,1.33,0,0,0,.83-.08v.17l-.46.09a2.53,2.53,0,0,1-.55,0,2.34,2.34,0,0,1-.87-.28,2.92,2.92,0,0,1-1.06-1,20.14,20.14,0,0,0-1.85-2.49,9.26,9.26,0,0,0-1.87-1.61,3.63,3.63,0,0,0-2.53-.46A3.67,3.67,0,0,0,29,19q-.15.16-.15.09l0-.11A3.42,3.42,0,0,1,29,15.75a4.39,4.39,0,0,1,2.8-1.62,17.5,17.5,0,0,1,3.08-.36l.39,0a8.59,8.59,0,0,0,3.08-.67Z"/><path class="cls-10" d="M40.8,24.13h0l.11.13-.06,0a2.66,2.66,0,0,1-2,.16,2.76,2.76,0,0,1-1.52-1.14A21.46,21.46,0,0,0,34.73,20a4.28,4.28,0,0,0-2.09-1.37,3.73,3.73,0,0,0-2.18.21,2,2,0,0,0-1.2,1.26l-.2-.1a2.11,2.11,0,0,1,1.29-1.32,4.12,4.12,0,0,1,2.32-.2q1.88.32,4.7,4.65a2.77,2.77,0,0,0,1.48,1.13,2.49,2.49,0,0,0,1.95-.1Z"/><path class="cls-10" d="M42.2,21.54l.21-.42.11-.2s-.15.06-.34.23a3.12,3.12,0,0,0-.68.83l-.18.29s0,0,0-.1a1.64,1.64,0,0,1,.06-.59,2.78,2.78,0,0,0-.56.82,1.58,1.58,0,0,0-.15.7A1.64,1.64,0,0,0,41,24a1.27,1.27,0,0,0,1,.53,1.58,1.58,0,0,0,1.32-.51A4.85,4.85,0,0,0,44,22.88l.07-.16a2.87,2.87,0,0,1,.57-.81,4.3,4.3,0,0,1,.69-.59,2.3,2.3,0,0,0-.79.2l-.15,0,.14-.16.22-.2.47-.27A4.51,4.51,0,0,0,42.71,22c-.14.11-.21.16-.23.15s0-.1,0-.27l.09-.34-.59.72s0-.09,0-.25a2.21,2.21,0,0,1,.15-.5Zm-.74-.2c.09-.05.12-.05.1,0l-.1.27a2.57,2.57,0,0,0-.08.38,2.55,2.55,0,0,1,.54-.76,2.2,2.2,0,0,1,.62-.47l.19-.06s0,.07-.08.16a3.52,3.52,0,0,0-.34.62,3.58,3.58,0,0,0-.19.54l.38-.49c.09-.1.15-.15.17-.13s0,.08,0,.21l-.09.37a4.74,4.74,0,0,1,1.16-.85,3.87,3.87,0,0,1,2-.45l.23,0s-.05.06-.22.12a8.48,8.48,0,0,0-.83.36l.37-.11.44-.07H46l-.12.1a4.3,4.3,0,0,0-.77.56,3.29,3.29,0,0,0-.88,1.08l-.07.16a4.89,4.89,0,0,1-.71,1.24,1.8,1.8,0,0,1-1.44.59,1.66,1.66,0,0,1-.8-.24,1.58,1.58,0,0,1-.61-.65c-.33-.68-.13-1.43.6-2.27a1.81,1.81,0,0,1,.29-.28Z"/><path class="cls-10" d="M42.08,6.66a2,2,0,0,0-.34-.7,3.45,3.45,0,0,1-.4,1.71c-.06.09-.09.07-.08-.06l.05-.6a1.31,1.31,0,0,0-.07-.41,2.11,2.11,0,0,1-.74,1.45,6.69,6.69,0,0,0-.92.88,2,2,0,0,0-.49,1.23,1.84,1.84,0,0,0,0,.39,1.25,1.25,0,0,0,.55.81,1.21,1.21,0,0,0,.6.15,1.53,1.53,0,0,0,.76-.23,4.73,4.73,0,0,0,.61-.49,3.51,3.51,0,0,1,.67-.5l-.37,0a2.55,2.55,0,0,0-.53.18c-.15.08-.19.07-.11,0l.17-.16a4.16,4.16,0,0,0,.57-.77,2.92,2.92,0,0,0,.37-1.42V7.74a1.43,1.43,0,0,0-.1-.41l-.08.55c-.08.38-.16.6-.26.67s0,0,0-.17l.1-.42a3.77,3.77,0,0,0,0-1.3Zm-.53-1c0-.12,0-.18,0-.2s.08,0,.17.16a5.59,5.59,0,0,1,.35.6,2.58,2.58,0,0,1,.24.84,1.17,1.17,0,0,1,.21.48,4.43,4.43,0,0,1,0,.71,2.68,2.68,0,0,1-.27,1.18,4.11,4.11,0,0,1-.53.77l.4,0,.29,0q.21.08.18.12l-.21.11a2.81,2.81,0,0,0-.7.5,4.94,4.94,0,0,1-.7.54,1.29,1.29,0,0,1-.8.21,2,2,0,0,1-.75-.2,1.25,1.25,0,0,1-.59-.85,1.88,1.88,0,0,1,.29-1.56,4.91,4.91,0,0,1,1-1,2.79,2.79,0,0,0,.68-.78,1.69,1.69,0,0,0,.2-.89c0-.16,0-.25,0-.26l.14.14a1.44,1.44,0,0,1,.2.56,4.12,4.12,0,0,0,.07-.59l0-.56Z"/><path class="cls-10" d="M28.75,2.75a5.35,5.35,0,0,1,1,1.32,1.69,1.69,0,0,1-.13,1.64l-.14-.08a1.39,1.39,0,0,0,.17-.44l0-.41a2.07,2.07,0,0,0-.31-1,7,7,0,0,0-.7-.9A3.42,3.42,0,0,1,28,2a1.24,1.24,0,0,0,.08.66,2.36,2.36,0,0,0,.39.69c.13.17.16.24.07.2l-.17-.11a2.63,2.63,0,0,1-.65-.84,6.18,6.18,0,0,0,.3,1.1q.09.19,0,.18c-.05,0-.15-.16-.28-.44A1.87,1.87,0,0,1,27,2.61a5.9,5.9,0,0,1-.75-2A2.82,2.82,0,0,0,26,1.65,5.51,5.51,0,0,0,26.18,3a2.66,2.66,0,0,0,.41.86l.13.2h-.09a1.35,1.35,0,0,1-.55-.79l-.15-.57,0,0a1.7,1.7,0,0,0,0,.41,4.37,4.37,0,0,0,.06.72A3,3,0,0,0,26.39,5a2.63,2.63,0,0,0,1.35,1,1.44,1.44,0,0,0,.94,0s.05.08.14.13a1.82,1.82,0,0,1-1.16.06,2.88,2.88,0,0,1-1.43-1.06,3,3,0,0,1-.47-1.18,4,4,0,0,1,0-1.79l0-.68A4.48,4.48,0,0,1,26.17.25L26.3,0s.05.09.08.29A5.93,5.93,0,0,0,27,2.09a4.83,4.83,0,0,0,.7,1c0-.13-.05-.33-.08-.6a1.92,1.92,0,0,1,0-.39l.19.29.24.4-.11-.32a1.39,1.39,0,0,1,0-.35,1.74,1.74,0,0,1,.06-.45c0-.08,0-.12.05-.11l.1.24a1.29,1.29,0,0,0,.26.46l.41.47Z"/><path class="cls-10" d="M19.06,9.12a10.91,10.91,0,0,0,1.14,1.32,15.8,15.8,0,0,1,3,3.93A7.67,7.67,0,0,1,23.85,20l-.13-.41a7.37,7.37,0,0,0,.09-.75V18.2a8.76,8.76,0,0,0-1.3-4.64,18,18,0,0,0-2.54-3c-.54-.54-.92-.93-1.12-1.18a2.94,2.94,0,0,1-.6-1.07,1.35,1.35,0,0,0-.18.25l-.14.26c-.07.12-.12.14-.15.08l-.06-.25a1.92,1.92,0,0,0-.14-.49,1.44,1.44,0,0,0-.64-.74A3,3,0,0,1,17,8.1l0,.33,0,.18q0,.13-.18-.12a2.78,2.78,0,0,0-1.32-.8,4.27,4.27,0,0,0-2.28-.29,3.09,3.09,0,0,1,.85.28,1.1,1.1,0,0,1,.31.3c0,.08,0,.12,0,.11A1,1,0,0,1,14,7.91l-1.15,0L11.33,8a4.38,4.38,0,0,1,.43.14l.43.22c.27.15.31.21.13.18L12,8.44a5.25,5.25,0,0,0-1.79.28A10.94,10.94,0,0,0,6,11.25a14.36,14.36,0,0,0-1.48,1.64c-.29.38-.69.93-1.18,1.66a10.59,10.59,0,0,1-1,1.26,5.39,5.39,0,0,1-.92.83,6.6,6.6,0,0,0,.89,0,2.33,2.33,0,0,1,.41-.24c.14,0,.08.06-.19.33L2,17.24a3.08,3.08,0,0,1-.84.45l.28,0c.36,0,.54.08.55.15s-.14.2-.45.4a2.64,2.64,0,0,1-.51.25,3.63,3.63,0,0,1-.66.15,17.72,17.72,0,0,1,1,2A8.26,8.26,0,0,1,2,22.78c0,.4,0,.57,0,.53a1,1,0,0,1-.16-.48,1.47,1.47,0,0,1-.27-.16l-.2-.23A14.68,14.68,0,0,0,2,26.38a10.13,10.13,0,0,0,1.15,2,15.94,15.94,0,0,0,1.86,2,7.69,7.69,0,0,1,1.83,2.27L7,32.3c.07-.32.14-.46.21-.43s.18.23.31.61A7.79,7.79,0,0,1,8,35l0,.47.82-.81L9,34.45l0,.27-.06.59-.11.92a8.38,8.38,0,0,1,1-1.2,3.32,3.32,0,0,1,1.44-.82l.43-.07c.08,0,.06.06-.06.13a2.4,2.4,0,0,0-.39.32,3.46,3.46,0,0,0-.33.35,17.58,17.58,0,0,1,2.69-1l.19.25c-.18,0-.58.15-1.2.34s-1.16.36-1.54.5c-.21.08-.34.1-.38.06s0-.16.14-.35l.15-.2a3.73,3.73,0,0,0-1.07.71,7.49,7.49,0,0,0-.86.92c-.2.27-.32.39-.37.37s-.06-.18,0-.49L8.73,35l-.49.45c-.21.2-.34.29-.39.28s-.07-.15,0-.41a4.13,4.13,0,0,0-.13-1.24,11.44,11.44,0,0,0-.49-1.49.93.93,0,0,1-.11.32c-.06.13-.12.2-.16.19s-.19-.18-.35-.55a4,4,0,0,0-.73-1.08l-.94-.93a20,20,0,0,1-2-2.08,8.84,8.84,0,0,1-1.25-2,7.52,7.52,0,0,1-.47-2,14.17,14.17,0,0,1-.12-1.83,1.68,1.68,0,0,1,0-.48s.12.06.3.25a.82.82,0,0,0,.25.2A15.29,15.29,0,0,0,1,20.58C.66,19.92.4,19.37.16,18.92,0,18.67,0,18.53,0,18.48s.14-.08.37-.1A3.85,3.85,0,0,0,1,18.2a2.18,2.18,0,0,0,.54-.29H1.16c-.32,0-.46-.06-.43-.14a1.43,1.43,0,0,1,.45-.31,6.42,6.42,0,0,0,1-.62H1.56c-.3,0-.46,0-.48-.1s.09-.17.3-.34a6.49,6.49,0,0,0,.79-.79A11.24,11.24,0,0,0,3,14.51a20.36,20.36,0,0,1,2.81-3.4A11.78,11.78,0,0,1,9.36,8.79a7,7,0,0,1,2.22-.54l-.23-.1c-.21-.09-.31-.15-.29-.21s.15-.1.41-.14a9.93,9.93,0,0,1,2.33,0,3.7,3.7,0,0,0-.49-.15c-.31-.08-.46-.16-.44-.24s.22-.13.58-.18a4.5,4.5,0,0,1,1.86.2,4.27,4.27,0,0,1,1.51.82,1.64,1.64,0,0,0,0-.66c0-.21,0-.33,0-.35s.13,0,.33.1a1.11,1.11,0,0,1,.41.38,2.14,2.14,0,0,1,.34.73,4.33,4.33,0,0,1,.3-.44l.2-.22.09.26a4,4,0,0,0,.59,1.11Z"/><path class="cls-10" d="M18.27,39.1,18.16,39h.12l.14,0a10.4,10.4,0,0,0,.75.93,1.8,1.8,0,0,0,.9.61c.43,0,.81-.19,1.14-.73a3.86,3.86,0,0,0,.46-1.54,1.81,1.81,0,0,0-.2-1.26,1.28,1.28,0,0,0-.57-.29l-.82-.21,0-.19.75.14a1.55,1.55,0,0,1,.84.37A2.09,2.09,0,0,1,22,38.2a3.81,3.81,0,0,1-.49,1.68,2.47,2.47,0,0,1-.67.76,1.13,1.13,0,0,1-.79.26,1.78,1.78,0,0,1-1-.72l-.79-1.08Z"/><path class="cls-10" d="M15,28.64l.21.16a3.41,3.41,0,0,1-.59.62l-.62.45-.51.37a2.32,2.32,0,0,0-.41.43,2.9,2.9,0,0,0-.43.94,2.55,2.55,0,0,0-.07,1.08,1.35,1.35,0,0,0,.57.88,13.64,13.64,0,0,1,3.44,3,6.75,6.75,0,0,1,.65,1.2,4.06,4.06,0,0,0,.33.63,1,1,0,0,0,.47.36h.48a1.79,1.79,0,0,0,.57-.31,2.61,2.61,0,0,0,.68-.8A1.88,1.88,0,0,0,20,36.52a2.12,2.12,0,0,0-.19-.84.75.75,0,0,0-.44-.23,3.56,3.56,0,0,1-.74-.26,3.13,3.13,0,0,1-1.19-1.14,2.84,2.84,0,0,1-.43-.83l.24-.62a1.54,1.54,0,0,1,.42-.43,7.53,7.53,0,0,1,2-.89q1.83-.59,1.68-1.86a11.89,11.89,0,0,1-.08-1.4,2.34,2.34,0,0,1,.13-.67c.15-.48.21-.54.18-.17v1.6c0,.18,0,.39,0,.61l0,.33A1.43,1.43,0,0,1,20.91,31a5.07,5.07,0,0,1-1.11.45,8.22,8.22,0,0,0-1.61.7,4,4,0,0,0-.88.67.78.78,0,0,0-.11.18l-.05.12A3.58,3.58,0,0,0,18.64,35a2.61,2.61,0,0,0,.43.16l.35.09a1,1,0,0,1,.56.3,2.28,2.28,0,0,1,.26,1v.19a2.28,2.28,0,0,1-.34,1.15,2.9,2.9,0,0,1-.71.81,2.48,2.48,0,0,1-.75.4.87.87,0,0,1-1.19-.44L17,37.88a8.73,8.73,0,0,0-.77-1.43,6.84,6.84,0,0,0-1.26-1.28c-.42-.33-1.08-.8-2-1.39a1.56,1.56,0,0,1-.76-1,2.56,2.56,0,0,1,.11-1.23,3.81,3.81,0,0,1,.51-1,2.19,2.19,0,0,1,.45-.47l.53-.39.6-.44a2.72,2.72,0,0,0,.55-.58Z"/><path class="cls-10" d="M22.08,11.51a14.31,14.31,0,0,0-2-2.09,1.52,1.52,0,0,0-1.29-.27l-.13-.25A2,2,0,0,1,20.09,9a9.09,9.09,0,0,1,2,1.9,15.39,15.39,0,0,1,1.5,2.18l1.19,2.14c.35.62.64,1.11.88,1.47a9.62,9.62,0,0,0,1,1.27,5.34,5.34,0,0,0,.71.6l.72.47a8,8,0,0,1,1.22.9,2.83,2.83,0,0,1,.79,1.42,11.48,11.48,0,0,1,.22,2.91L30.08,27l-.15,1.56a9.49,9.49,0,0,0,0,1.39,1,1,0,0,0,.25.6,3.38,3.38,0,0,0,.51.41l.48.33c.17.13.24.26.2.37a2.13,2.13,0,0,0,.31,1.24,6.55,6.55,0,0,0,1.72,2,1.38,1.38,0,0,1,.53.93,1.45,1.45,0,0,1-.32,1,1.81,1.81,0,0,1-.66.56,1.59,1.59,0,0,1-.93.18,1.33,1.33,0,0,1-1.07-1,5.49,5.49,0,0,0-2.79-3.37,2.56,2.56,0,0,0-.47-.18l-.36-.1a1.55,1.55,0,0,1-.68-.38,18,18,0,0,1-1.18-1.54,10,10,0,0,0-1.38-1.66,1,1,0,0,0-.84-.27,7.27,7.27,0,0,1-1.1.57l-.71.28,0-.37a4,4,0,0,0,1.77-.79,5.37,5.37,0,0,0,1.41-2c.07-.16.12-.21.15-.14a.61.61,0,0,1,0,.34,2.78,2.78,0,0,1-.3.73,4.11,4.11,0,0,1-.76,1,1.86,1.86,0,0,1,.83.67L25.66,31a11.81,11.81,0,0,0,1.17,1.47,1.61,1.61,0,0,0,.66.36,4.7,4.7,0,0,1,.76.28A5.14,5.14,0,0,1,30,34.46a6.7,6.7,0,0,1,1.19,2.13,1.08,1.08,0,0,0,.87.83,1.43,1.43,0,0,0,.84-.15,1.62,1.62,0,0,0,.58-.45,1.08,1.08,0,0,0,.21-.84,1.1,1.1,0,0,0-.35-.71,8.47,8.47,0,0,1-1.82-2.18,2.19,2.19,0,0,1-.43-1.39c0-.06-.12-.19-.4-.4a3.46,3.46,0,0,1-.63-.52,1.43,1.43,0,0,1-.37-.81,13.1,13.1,0,0,1,0-1.39L29.82,27c.12-1.19.19-2.11.2-2.75a12.8,12.8,0,0,0-.27-2.89,2.48,2.48,0,0,0-.67-1.27A6.76,6.76,0,0,0,28,19.29l-.74-.49a5.66,5.66,0,0,1-.73-.62,9,9,0,0,1-1.12-1.45c-.22-.34-.54-.89-1-1.64l-1-1.77a15.65,15.65,0,0,0-1.31-1.81Z"/><path class="cls-10" d="M16.92,31.51a.64.64,0,0,1-.05-.27c0-.08.08,0,.22.18a1.6,1.6,0,0,1,.23,1.07,1.56,1.56,0,0,1-.5,1.14l-.22.14c-.07,0-.06,0,0-.13a1.9,1.9,0,0,0,.29-2.13Z"/><path class="cls-10" d="M25.64,22.3A2.52,2.52,0,0,1,24.43,22l0-.22a2.53,2.53,0,0,0,1.12.27,3.57,3.57,0,0,0,1.36-.23,2.19,2.19,0,0,0,.58-.35,2.22,2.22,0,0,0,.53-.62c.19-.33.31-.49.38-.49s.18.17.3.51a2.62,2.62,0,0,1,.05,1.51,3.48,3.48,0,0,1-.9,1.69,3.72,3.72,0,0,1-1.8,1.05,6.42,6.42,0,0,1-3.57-.25l.22-.21a5.24,5.24,0,0,0,3.16.22,3.7,3.7,0,0,0,1.8-1,3.6,3.6,0,0,0,.74-1.15,2.89,2.89,0,0,0,.23-1.13,2.51,2.51,0,0,0-.1-.65c-.07-.22-.12-.34-.16-.36s0,0,0,.08a2.09,2.09,0,0,1-.45.8,2.36,2.36,0,0,1-.8.52,4.11,4.11,0,0,1-1.46.28Z"/><path class="cls-10" d="M23.92,21.3l0-.18a.77.77,0,0,1,.5.46,1.69,1.69,0,0,1,.16.9,2.44,2.44,0,0,1-.76,1.69,3.23,3.23,0,0,1-2.23.85l0-.14a3,3,0,0,0,2-.88,2.41,2.41,0,0,0,.71-1.6,1.73,1.73,0,0,0-.09-.74c-.08-.21-.19-.33-.34-.36Z"/><path class="cls-10" d="M13.48,23a3.68,3.68,0,0,1,.08-2.62l.32.22A3.39,3.39,0,0,0,13.8,23a16.17,16.17,0,0,0,.88,2.46l.27.62.09.28A1.37,1.37,0,0,1,15,27a3,3,0,0,0-.19.81,1.71,1.71,0,0,0,.28,1,2.9,2.9,0,0,0,.19.22,1.39,1.39,0,0,0,.28.52,1.86,1.86,0,0,1-.77-.63,1.74,1.74,0,0,1-.28-1.14,6.18,6.18,0,0,1,.24-.87l.11-.36a4.66,4.66,0,0,0-.38-1,21.68,21.68,0,0,1-1-2.56Z"/><path class="cls-10" d="M22,17.06a5.14,5.14,0,0,0-2.87-.9,4.61,4.61,0,0,0-2.34.28l-.44-.21a5.16,5.16,0,0,1,2.49-.41,5.69,5.69,0,0,1,3.31,1A5.18,5.18,0,0,1,24,19.59a3.91,3.91,0,0,1-.11,3,6.42,6.42,0,0,1-1.07,1.53,8.65,8.65,0,0,1-1,.9l-.59.49a2.37,2.37,0,0,0-.4.63c-.08.17-.2.46-.37.89l-.36.9a6.39,6.39,0,0,1-.45.84c0-.06-.09-.1-.23-.13a4.89,4.89,0,0,0,.45-.81l.35-.9A4.62,4.62,0,0,1,21,25.39a6.94,6.94,0,0,1,.59-.57,8.44,8.44,0,0,0,1-.83,6.49,6.49,0,0,0,1-1.45,3.73,3.73,0,0,0,.13-2.85A5.07,5.07,0,0,0,22,17.06Z"/><path class="cls-10" d="M17.92,28.47a2.46,2.46,0,0,1-1.07-.88c-.26-.36-.53-.53-.8-.51s-.46.23-.62.6a1.52,1.52,0,0,0,.66,2,2.1,2.1,0,0,0,1.15.3,3,3,0,0,0,1.32-.26,2.11,2.11,0,0,0,.53-.34,1.14,1.14,0,0,0,.33-.63,4.09,4.09,0,0,1-1.5-.31ZM16,26.89c.35,0,.67.16,1,.59a2.68,2.68,0,0,0,1.38.85,3,3,0,0,0,1.13.21l.09,0a.15.15,0,0,1,.08.17,1.49,1.49,0,0,1-.37.79,2.63,2.63,0,0,1-.74.49,2.72,2.72,0,0,1-1.36.26,3.15,3.15,0,0,1-1.35-.4,1.58,1.58,0,0,1-.83-1,2,2,0,0,1,.15-1.31,1.11,1.11,0,0,1,.37-.48,1,1,0,0,1,.48-.19Z"/><path class="cls-10" d="M16.71,21.93a2.3,2.3,0,0,0-.44.33,1.88,1.88,0,0,0-.44.61V23a1.91,1.91,0,0,0,.15.67,3,3,0,0,0,.59.94,2.66,2.66,0,0,0,.29-1.21,4.56,4.56,0,0,0-.14-1.45Zm0-.18c-.05-.14-.05-.23,0-.26s.08,0,.14.15a3.4,3.4,0,0,1,.3,1.62,2.24,2.24,0,0,1-.48,1.5c-.08.08-.14.12-.16.11s0-.06,0-.14a3.08,3.08,0,0,1-.75-1.17,1.07,1.07,0,0,1-.09-.75,2.05,2.05,0,0,1,.6-.78l.43-.28Z"/><path class="cls-10" d="M22.33,18.44c-.08,0-.14,0-.2.15a.59.59,0,0,0-.08.34.58.58,0,0,0,.08.33c.06.1.12.15.2.15s.14-.05.2-.15a.67.67,0,0,0,.08-.33.68.68,0,0,0-.08-.34c-.06-.1-.12-.15-.2-.15Zm-.27.07a.37.37,0,0,1,.31-.17.36.36,0,0,1,.31.17.81.81,0,0,1,0,.88.38.38,0,0,1-.31.17.4.4,0,0,1-.31-.17.87.87,0,0,1,0-.88Z"/><path class="cls-10" d="M22.16,20.4c-.08,0-.16,0-.26.09a.81.81,0,0,0-.27.39.82.82,0,0,0-.06.6.22.22,0,0,0,.1.11.35.35,0,0,0,.32-.05.63.63,0,0,0,.3-.34.68.68,0,0,0,.07-.32.67.67,0,0,0-.07-.31.3.3,0,0,0-.13-.17Zm.33.12a.89.89,0,0,1,0,.75.81.81,0,0,1-.38.43.51.51,0,0,1-.46.05.39.39,0,0,1-.19-.19,1,1,0,0,1,.05-.74,1.1,1.1,0,0,1,.35-.47.38.38,0,0,1,.4-.1.42.42,0,0,1,.23.27Z"/><path class="cls-10" d="M21.55,22.85a.46.46,0,0,0-.26-.27.72.72,0,0,0-.62.14,1.77,1.77,0,0,0-.55.63,1.71,1.71,0,0,0-.16.5.85.85,0,0,0,.05.43.35.35,0,0,0,.25.24.77.77,0,0,0,.62-.07,1.3,1.3,0,0,0,.58-.58,1.4,1.4,0,0,0,.15-.53,1,1,0,0,0-.06-.49Zm-.89-.28a.82.82,0,0,1,.72-.14.64.64,0,0,1,.37.37,1.15,1.15,0,0,1,.08.44,1.51,1.51,0,0,1-.18.72,1.41,1.41,0,0,1-.66.66,1,1,0,0,1-.74.07.53.53,0,0,1-.36-.34,1,1,0,0,1-.05-.49,1.57,1.57,0,0,1,.18-.57,1.73,1.73,0,0,1,.64-.72Z"/><path class="cls-10" d="M15.06,16.2a1,1,0,0,1,.5-.19,2,2,0,0,1,.73,0,1.52,1.52,0,0,1,1.07,1,2.23,2.23,0,0,1,.11,1.2A3.14,3.14,0,0,1,17,19.55a3.54,3.54,0,0,1-.91.9,2.63,2.63,0,0,1-1.59.52,1.37,1.37,0,0,1-1.12-.54,2.46,2.46,0,0,1-.38-.89l.19.05a1.29,1.29,0,0,0,1.39,1A2.39,2.39,0,0,0,16,20.21a3,3,0,0,0,.76-.79,3.2,3.2,0,0,0,.52-1.22,1.9,1.9,0,0,0,0-1.1,1.42,1.42,0,0,0-1-.86l-.61,0a.83.83,0,0,0-.38.13l-.13-.14Z"/><path class="cls-10" d="M13.63,10.1c.06-.1.08-.16.06-.17h-.26a4.13,4.13,0,0,0-2.5,1.28,3.72,3.72,0,0,0-1.16,3.18,6.83,6.83,0,0,0,1.5,3.45,4.37,4.37,0,0,0,2.8,2,1.53,1.53,0,0,0,1.17-.34,2.17,2.17,0,0,0,.63-.94,2.37,2.37,0,0,0,.12-.73,1.62,1.62,0,0,0-.12-.64,1,1,0,0,0-.39-.47,7.05,7.05,0,0,1-2.12-1.93,3.6,3.6,0,0,1-.8-2.1,2.14,2.14,0,0,1,.06-.5,6.55,6.55,0,0,1,1-2.09Zm.24-.48c.27,0,.29.1,0,.42a6.51,6.51,0,0,0-1,2.15,2.8,2.8,0,0,0,.54,2.2,6.67,6.67,0,0,0,2.17,2.12,1.29,1.29,0,0,1,.59.87,2.34,2.34,0,0,1-.09,1.27,2.1,2.1,0,0,1-.73,1A1.82,1.82,0,0,1,14,20,4.64,4.64,0,0,1,11,18a7.06,7.06,0,0,1-1.61-3.59,3.86,3.86,0,0,1,1.12-3.14,5.53,5.53,0,0,1,3.32-1.63Z"/><path class="cls-10" d="M15.9,28.68s0-.05,0-.07l.1,0a.34.34,0,0,1,.17.1.51.51,0,0,1,.14.23c0,.09,0,.15,0,.18s-.06,0-.09-.05a1.71,1.71,0,0,0-.3-.37Z"/><path class="cls-10" d="M19.39,10.77a5,5,0,0,1-1-1.43c0-.05-.06,0-.12.17l-.13.37L18,10s0-.05,0-.12l.13-.62q.11-.48.18-.48s.12.12.25.38l.4.79c.07.12.22.37.46.73.08.13.08.18,0,.12Z"/></g></g></svg>